<svg width="293" height="86" viewBox="0 0 293 86" fill="none" xmlns="http://www.w3.org/2000/svg">
<g clip-path="url(#clip0_936_197)">
<path d="M33.3672 78.3912H34.1304V84.4614H37.9467V85.165H33.3672V78.3912Z" fill="url(#paint0_linear_936_197)"/>
<path d="M47.0259 85.1649H46.203L45.404 83.3761H41.7189L40.9199 85.1649H40.1328L43.2216 78.3434H43.9371L47.0259 85.1649ZM43.5674 79.2378L42.0171 82.6963H45.1059L43.5674 79.2378Z" fill="url(#paint1_linear_936_197)"/>
<path d="M54.7991 80.0846C54.7991 80.9791 54.2625 81.4323 53.7258 81.6588C54.5248 81.8974 55.1808 82.3625 55.1808 83.3046C55.1808 84.4733 54.2029 85.165 52.7241 85.165H49.7188V78.3912H52.6048C53.9405 78.3912 54.8111 79.0471 54.8111 80.0846H54.7991ZM54.024 80.192C54.024 79.5122 53.4873 79.0829 52.5213 79.0829H50.4582V81.4084H52.4617C53.38 81.4084 54.024 80.991 54.024 80.192ZM54.4056 83.2569C54.4056 82.5175 53.7855 82.0882 52.6048 82.0882H50.4701V84.4733H52.7479C53.7735 84.4733 54.4175 84.0201 54.4175 83.2569H54.4056Z" fill="url(#paint2_linear_936_197)"/>
<path d="M61.1966 85.2722C59.1334 85.2722 57.75 83.6623 57.75 81.778C57.75 79.8937 59.1572 78.2718 61.2085 78.2718C63.2597 78.2718 64.655 79.8818 64.655 81.7661C64.655 83.6503 63.2478 85.2722 61.1966 85.2722ZM61.1966 78.9754C59.6462 78.9754 58.549 80.2157 58.549 81.7661C58.549 83.3164 59.6701 84.5686 61.2204 84.5686C62.7708 84.5686 63.8679 83.3283 63.8679 81.778C63.8679 80.2276 62.7469 78.9754 61.1966 78.9754Z" fill="url(#paint3_linear_936_197)"/>
<path d="M72.288 85.165L70.3202 82.5294H68.3883V85.165H67.625V78.3912H70.5349C72.0256 78.3912 72.9797 79.1902 72.9797 80.4186C72.9797 81.5515 72.2045 82.2074 71.1431 82.3982L73.2182 85.165H72.2761H72.288ZM70.4753 79.0948H68.3883V81.8377H70.4633C71.477 81.8377 72.2045 81.313 72.2045 80.4305C72.2045 79.548 71.5724 79.0829 70.4753 79.0829V79.0948Z" fill="url(#paint4_linear_936_197)"/>
<path d="M82.2994 85.1649H81.4765L80.6775 83.3761H76.9924L76.1934 85.1649H75.4062L78.495 78.3434H79.2106L82.2994 85.1649ZM78.8409 79.2378L77.2905 82.6963H80.3793L78.8409 79.2378Z" fill="url(#paint5_linear_936_197)"/>
<path d="M86.678 85.165H85.9028V79.0948H83.625V78.3912H88.9439V79.0948H86.6661V85.165H86.678Z" fill="url(#paint6_linear_936_197)"/>
<path d="M94.4231 85.2722C92.36 85.2722 90.9766 83.6623 90.9766 81.778C90.9766 79.8937 92.3838 78.2718 94.435 78.2718C96.4863 78.2718 97.8816 79.8818 97.8816 81.7661C97.8816 83.6503 96.4744 85.2722 94.4231 85.2722ZM94.4231 78.9754C92.8728 78.9754 91.7756 80.2157 91.7756 81.7661C91.7756 83.3164 92.8966 84.5686 94.447 84.5686C95.9973 84.5686 97.0945 83.3283 97.0945 81.778C97.0945 80.2276 95.9735 78.9754 94.4231 78.9754Z" fill="url(#paint7_linear_936_197)"/>
<path d="M105.515 85.165L103.547 82.5294H101.615V85.165H100.852V78.3912H103.761C105.252 78.3912 106.206 79.1902 106.206 80.4186C106.206 81.5515 105.431 82.2074 104.37 82.3982L106.445 85.165H105.503H105.515ZM103.702 79.0948H101.615V81.8377H103.69C104.704 81.8377 105.431 81.313 105.431 80.4305C105.431 79.548 104.799 79.0829 103.702 79.0829V79.0948Z" fill="url(#paint8_linear_936_197)"/>
<path d="M110.052 78.3912V85.165H109.289V78.3912H110.052Z" fill="url(#paint9_linear_936_197)"/>
<path d="M118.28 79.0828H114.154V81.3964H117.851V82.0881H114.154V84.4614H118.328V85.1531H113.391V78.3792H118.28V79.0709V79.0828Z" fill="url(#paint10_linear_936_197)"/>
<path d="M123.663 81.4083C125.178 81.7422 125.869 82.2908 125.869 83.3283C125.869 84.4971 124.903 85.2484 123.556 85.2484C122.483 85.2484 121.6 84.8906 120.789 84.1631L121.266 83.6026C121.97 84.2466 122.649 84.5567 123.592 84.5567C124.534 84.5567 125.106 84.0797 125.106 83.3999C125.106 82.7559 124.772 82.3981 123.341 82.1C121.779 81.766 121.063 81.2532 121.063 80.1322C121.063 79.0112 122.005 78.2718 123.293 78.2718C124.283 78.2718 124.987 78.558 125.679 79.1066L125.237 79.691C124.605 79.1782 123.973 78.9516 123.282 78.9516C122.399 78.9516 121.839 79.4405 121.839 80.0487C121.839 80.657 122.184 81.0505 123.675 81.3725L123.663 81.4083Z" fill="url(#paint11_linear_936_197)"/>
<path d="M136.189 85.2722C134.126 85.2722 132.742 83.6623 132.742 81.778C132.742 79.8937 134.149 78.2718 136.201 78.2718C138.252 78.2718 139.647 79.8818 139.647 81.7661C139.647 83.6503 138.24 85.2722 136.189 85.2722ZM136.189 78.9754C134.638 78.9754 133.541 80.2157 133.541 81.7661C133.541 83.3164 134.662 84.5686 136.213 84.5686C137.763 84.5686 138.86 83.3283 138.86 81.778C138.86 80.2276 137.739 78.9754 136.189 78.9754Z" fill="url(#paint12_linear_936_197)"/>
<path d="M147.483 79.0948H143.38V81.5157H147.042V82.2074H143.38V85.1531H142.617V78.3792H147.483V79.0828V79.0948Z" fill="url(#paint13_linear_936_197)"/>
<path d="M156.928 85.165H154.578V78.3912H156.928C159.05 78.3912 160.529 79.8461 160.529 81.7662C160.529 83.6862 159.062 85.165 156.928 85.165ZM156.928 79.0948H155.341V84.4495H156.928C158.645 84.4495 159.73 83.2927 159.73 81.7781C159.73 80.2635 158.633 79.0948 156.928 79.0948Z" fill="url(#paint14_linear_936_197)"/>
<path d="M168.39 79.0828H164.263V81.3964H167.96V82.0881H164.263V84.4614H168.437V85.1531H163.5V78.3792H168.39V79.0709V79.0828Z" fill="url(#paint15_linear_936_197)"/>
<path d="M176.007 85.165L174.039 82.5294H172.107V85.165H171.344V78.3912H174.254C175.744 78.3912 176.698 79.1902 176.698 80.4186C176.698 81.5515 175.923 82.2074 174.862 82.3982L176.937 85.165H175.995H176.007ZM174.194 79.0948H172.107V81.8377H174.182C175.196 81.8377 175.923 81.313 175.923 80.4305C175.923 79.548 175.291 79.0829 174.194 79.0829V79.0948Z" fill="url(#paint16_linear_936_197)"/>
<path d="M182.939 83.3046H182.903L180.435 79.6911V85.165H179.695V78.3912H180.47L182.939 82.0882L185.408 78.3912H186.183V85.165H185.42V79.6792L182.951 83.3046H182.939Z" fill="url(#paint17_linear_936_197)"/>
<path d="M192.587 85.2722C190.524 85.2722 189.141 83.6623 189.141 81.778C189.141 79.8937 190.548 78.2718 192.599 78.2718C194.65 78.2718 196.046 79.8818 196.046 81.7661C196.046 83.6503 194.638 85.2722 192.587 85.2722ZM192.587 78.9754C191.037 78.9754 189.94 80.2157 189.94 81.7661C189.94 83.3164 191.061 84.5686 192.611 84.5686C194.161 84.5686 195.259 83.3283 195.259 81.778C195.259 80.2276 194.138 78.9754 192.587 78.9754Z" fill="url(#paint18_linear_936_197)"/>
<path d="M202.133 85.2722C200.177 85.2722 198.734 83.7338 198.734 81.778C198.734 79.8221 200.165 78.2718 202.157 78.2718C203.385 78.2718 204.125 78.713 204.793 79.3451L204.268 79.9056C203.696 79.369 203.063 78.9754 202.145 78.9754C200.643 78.9754 199.521 80.1799 199.521 81.7661C199.521 83.3522 200.654 84.5686 202.145 84.5686C203.075 84.5686 203.684 84.2108 204.328 83.5907L204.828 84.0797C204.125 84.7952 203.35 85.2722 202.121 85.2722H202.133Z" fill="url(#paint19_linear_936_197)"/>
<path d="M210.486 85.2722C208.422 85.2722 207.039 83.6623 207.039 81.778C207.039 79.8937 208.446 78.2718 210.498 78.2718C212.549 78.2718 213.944 79.8818 213.944 81.7661C213.944 83.6503 212.537 85.2722 210.486 85.2722ZM210.486 78.9754C208.935 78.9754 207.838 80.2157 207.838 81.7661C207.838 83.3164 208.959 84.5686 210.509 84.5686C212.06 84.5686 213.157 83.3283 213.157 81.778C213.157 80.2276 212.036 78.9754 210.486 78.9754Z" fill="url(#paint20_linear_936_197)"/>
<path d="M219.304 81.4083C220.818 81.7422 221.51 82.2908 221.51 83.3283C221.51 84.4971 220.544 85.2484 219.196 85.2484C218.123 85.2484 217.241 84.8906 216.43 84.1631L216.907 83.6026C217.61 84.2466 218.29 84.5567 219.232 84.5567C220.174 84.5567 220.747 84.0797 220.747 83.3999C220.747 82.7559 220.413 82.3981 218.982 82.1C217.42 81.766 216.704 81.2532 216.704 80.1322C216.704 79.0112 217.646 78.2718 218.934 78.2718C219.924 78.2718 220.628 78.558 221.319 79.1066L220.878 79.691C220.246 79.1782 219.614 78.9516 218.922 78.9516C218.04 78.9516 217.479 79.4405 217.479 80.0487C217.479 80.657 217.825 81.0505 219.316 81.3725L219.304 81.4083Z" fill="url(#paint21_linear_936_197)"/>
<path d="M227.666 83.3046H227.63L225.161 79.6911V85.165H224.422V78.3912H225.197L227.666 82.0882L230.134 78.3912H230.91V85.165H230.146V79.6792L227.678 83.3046H227.666Z" fill="url(#paint22_linear_936_197)"/>
<path d="M239.061 79.0828H234.935V81.3964H238.632V82.0881H234.935V84.4614H239.109V85.1531H234.172V78.3792H239.061V79.0709V79.0828Z" fill="url(#paint23_linear_936_197)"/>
<path d="M244.569 85.165H243.793V79.0948H241.516V78.3912H246.835V79.0948H244.557V85.165H244.569Z" fill="url(#paint24_linear_936_197)"/>
<path d="M250.474 78.3912V85.165H249.711V78.3912H250.474Z" fill="url(#paint25_linear_936_197)"/>
<path d="M256.899 85.2722C254.943 85.2722 253.5 83.7338 253.5 81.778C253.5 79.8221 254.931 78.2718 256.923 78.2718C258.151 78.2718 258.89 78.713 259.558 79.3451L259.034 79.9056C258.461 79.369 257.829 78.9754 256.911 78.9754C255.408 78.9754 254.287 80.1799 254.287 81.7661C254.287 83.3522 255.42 84.5686 256.911 84.5686C257.841 84.5686 258.449 84.2108 259.093 83.5907L259.594 84.0797C258.89 84.7952 258.115 85.2722 256.887 85.2722H256.899Z" fill="url(#paint26_linear_936_197)"/>
<path fill-rule="evenodd" clip-rule="evenodd" d="M22.8633 32.6557C22.8633 31.654 22.6367 30.4733 22.2074 29.1257C21.7781 27.7781 21.2295 26.7644 20.5139 26.1681C18.9159 24.8205 17.0197 24.1526 14.8492 24.1526C13.585 24.1526 12.4521 24.248 11.4265 24.4388L11.1164 24.4985V24.8205C10.9137 29.0899 10.8183 32.298 10.8183 34.4327V35.9353C10.866 36.8775 10.8898 37.6049 10.8898 38.1297V42.2083L11.2714 42.2322C18.8801 42.6257 22.8514 39.4415 22.8514 32.6557M14.7657 65.6902C17.4371 65.6902 19.5956 64.6884 21.1937 62.6968C22.6844 60.8603 23.4119 58.5824 23.4119 55.8991C23.4119 48.9702 20.1085 45.4044 13.5493 45.4044C12.8218 45.4044 12.0228 45.4521 11.1641 45.5475L10.8063 45.5833V45.9411C10.7467 48.2189 10.7348 51.6297 10.7348 56.1853C10.7348 57.1871 10.7586 58.6778 10.8063 60.6694C10.854 62.6611 10.8779 64.1399 10.8779 65.1416V65.5233L11.2595 65.5471C12.786 65.6425 13.9547 65.6902 14.7657 65.6902ZM56.5656 68.457C53.9897 68.2662 52.4035 68.1708 51.7953 68.1708C50.1496 68.1708 48.3488 68.2543 46.4168 68.4332C46.9892 61.0988 47.2635 52.703 47.2635 43.2458V39.4057C47.2635 32.1906 47.0727 26.2516 46.703 21.5886C49.3863 21.7794 51.0201 21.8748 51.5807 21.8748C52.2246 21.8748 53.8823 21.7794 56.5418 21.5886C55.9694 30.2706 55.6831 37.7719 55.6831 44.1045C55.6831 45.8218 55.9813 53.9433 56.5656 68.4689M160.738 29.9247C159.223 32.1071 156.468 36.0188 152.485 41.6597L153.355 44.1403C156.945 50.4967 161.346 58.6063 166.545 68.4451C163.958 68.2662 162.359 68.1827 161.751 68.1827C161.071 68.1827 160.034 68.2543 158.627 68.3974C157.589 68.4689 156.766 68.5166 156.146 68.5286C154.822 65.8572 151.781 60.0135 147.047 50.9857L146.403 49.7454L139.092 61.1823L135.014 68.4689C133.606 68.2781 132.688 68.1827 132.247 68.1827C131.627 68.1827 130.983 68.2185 130.327 68.2781C133.69 63.3051 138.341 56.3285 144.304 47.3245L130.482 21.6244C133.177 21.8032 134.811 21.8867 135.383 21.8867C136.015 21.8867 137.971 21.7794 141.239 21.5647C143.219 25.3571 146.081 30.9265 149.802 38.2966L150.446 39.5727L151.209 38.3563C151.769 37.4738 155.156 31.8806 161.382 21.6124C162.538 21.7913 163.588 21.8867 164.53 21.8867C165.269 21.8867 165.949 21.8509 166.569 21.7794L160.749 29.9247H160.738ZM214.94 62.0171L213.736 66.6681C210.003 68.5286 205.555 69.4707 200.355 69.4707C197.612 69.4707 194.559 69.1248 191.208 68.4212C186.247 67.3718 182.109 64.6527 178.746 60.1924C175.871 56.3642 174.428 51.8444 174.428 46.597C174.428 38.2489 176.969 31.8448 181.977 27.2891C186.819 22.9004 193.426 20.6703 201.905 20.6703C206.962 20.6703 211.482 21.684 215.489 23.7114C215.179 25.1663 214.738 27.146 214.141 29.6504C212.782 27.8377 211.053 26.3708 208.966 25.2617C206.723 24.0691 204.386 23.4609 201.977 23.4609C196.205 23.4609 191.709 25.8699 188.572 30.6522C185.853 34.695 184.53 39.692 184.53 45.5952C184.53 51.4985 185.901 56.4716 188.739 60.2998C191.947 64.7004 196.503 66.8828 202.335 66.8828C206.926 66.8828 211.136 65.237 214.928 62.0051M237.11 68.4689C234.534 68.2781 232.936 68.1827 232.34 68.1827C230.694 68.1827 228.905 68.2662 226.973 68.4451C227.546 61.1107 227.82 52.7149 227.82 43.2578V39.4177C227.82 32.2025 227.629 26.2635 227.26 21.6005C229.955 21.7913 231.577 21.8867 232.137 21.8867C232.781 21.8867 234.439 21.7913 237.098 21.6005C236.526 30.2825 236.228 37.7838 236.228 44.1164C236.228 45.8337 236.526 53.9552 237.122 68.4809M291.063 68.3854C289.644 68.135 288.069 68.1708 286.352 68.4689C277.742 58.332 270.085 49.7335 263.371 42.7092L254.272 33.1924L254.009 44.6889V51.1646C254.009 58.654 254.152 64.4022 254.439 68.4212C253.318 68.2662 252.53 68.1946 252.053 68.1946C251.314 68.1946 250.527 68.2543 249.692 68.3735C250.479 59.5246 250.885 48.5767 250.885 35.506C250.885 28.8872 250.825 24.2838 250.718 21.6959C251.553 21.8271 252.34 21.8867 253.055 21.8867C253.926 21.8867 254.904 21.7913 255.965 21.6005C262.93 28.9468 273.102 40.002 286.507 54.7542L287.89 56.2688L287.914 54.2176C287.962 50.7591 287.986 45.5356 287.986 38.5709C287.986 33.8722 287.819 28.3505 287.485 22.0298L287.461 21.6482C288.749 21.8032 289.524 21.8867 289.799 21.8867C290.204 21.8867 290.788 21.839 291.54 21.7436L292.136 21.6721L291.981 24.6535C291.838 26.3231 291.671 29.3284 291.48 33.7052L291.051 47.086V68.3854H291.063ZM21.0267 43.389L21.6469 43.4844C25.0934 44.0807 27.6098 45.0466 30.0904 47.2529C32.559 49.3996 33.7874 52.1186 33.7874 55.4102C33.7874 58.9641 32.5709 62.0409 30.1261 64.6646C28.5042 66.4177 25.7136 67.7534 21.6707 68.6001C20.5736 68.8267 19.0232 68.946 16.9958 68.946C16.1014 68.946 14.3483 68.8983 11.7485 68.8028C9.55412 68.7074 7.81295 68.6836 6.52496 68.7313L0.8125 68.934C1.06294 66.7516 1.24183 63.6271 1.32531 59.5484C1.51612 50.8187 1.61153 44.3072 1.61153 39.9901C1.61153 38.6306 1.43264 32.3337 1.05102 21.0758C3.61506 21.207 6.15526 21.2666 8.67161 21.2666C9.81648 21.2666 11.5219 21.2427 13.7997 21.195C16.0775 21.1473 17.771 21.1235 18.9159 21.1235C22.9468 21.1235 26.1071 21.8987 28.4327 23.4013C31.2472 25.214 32.6544 27.945 32.6544 31.6659C32.6544 34.7308 31.5214 37.2472 29.2317 39.2507C27.2162 41.0396 25.1888 41.8982 21.5395 43.222L21.0387 43.4009L21.0267 43.389ZM94.5255 69.8046C86.726 69.8046 80.5604 67.6103 75.957 63.2693C71.3656 58.9044 69.0281 52.9296 69.0281 45.2255C69.0281 37.5215 71.6876 31.5228 76.9945 27.0029C82.0392 22.6977 88.4314 20.5153 96.2309 20.5153C103.458 20.5153 109.492 22.6142 114.406 26.7882C119.26 30.9146 121.728 36.9132 121.728 44.9393C121.728 52.9654 119.069 58.6659 113.762 63.2335C108.717 67.5864 102.325 69.7927 94.5255 69.7927M111.544 43.5917C111.544 38.2609 110.351 33.6694 107.93 29.8651C105.092 25.3214 101.025 23.0197 95.8015 23.0197C89.5047 23.0197 84.8894 25.9773 82.063 31.7971C80.143 35.7445 79.2127 40.9203 79.2127 47.3006C79.2127 52.6315 80.3815 57.1394 82.7547 60.7529C85.5692 65.0701 89.6359 67.2286 94.8833 67.2286C100.715 67.2286 105.235 64.2949 108.383 58.6421C110.506 54.7781 111.544 49.7454 111.544 43.6036" fill="#8A2432"/>
<path fill-rule="evenodd" clip-rule="evenodd" d="M104.233 19.0482C112.14 15.7448 115.538 12.2744 116.982 9.73415C117.709 8.47002 117.959 7.42055 118.031 6.705C118.103 6.06101 118.031 5.67938 118.031 5.67938C117.828 4.67761 118.758 4.20058 119.414 4.98768C119.486 5.07116 127.536 14.6595 120.392 28.398C111.567 45.3804 92.9629 43.9016 90.3512 43.5677C89.1467 43.4126 89.2182 42.2558 89.1825 41.8981C88.8247 38.046 88.3715 25.6551 104.233 19.0482Z" fill="#4D8F41"/>
<path fill-rule="evenodd" clip-rule="evenodd" d="M103.827 17.8915C111.734 14.588 115.133 11.1176 116.576 8.57742C117.303 7.31328 117.554 6.26381 117.625 5.54826C117.697 4.90427 117.625 4.52264 117.625 4.52264C117.423 3.52088 118.353 3.04384 119.009 3.83095C119.08 3.91443 127.118 13.5028 119.987 27.2413C111.174 44.2236 92.5694 42.721 89.9576 42.4109C89.3136 42.3394 88.8366 41.0991 88.7889 40.7532C88.3238 37.1397 87.9779 24.5103 103.839 17.9034" fill="white"/>
<path fill-rule="evenodd" clip-rule="evenodd" d="M89.5719 40.6458C89.1306 37.1992 88.7609 25.0468 104.133 18.6307C120.15 11.9404 118.397 4.34363 118.397 4.34363C118.397 4.34363 126.184 13.5742 119.279 26.8715C110.716 43.3529 92.6368 41.9218 90.037 41.6237C91.8736 39.9422 96.465 36.3644 101.164 32.8105C106.697 28.6365 110.394 26.2275 115.367 19.5967C120.34 12.966 118.838 6.70494 118.838 6.70494C118.933 8.31492 118.766 9.38824 118.635 10.6166C117.836 17.0208 112.624 23.2818 101.82 31.2363C93.889 37.068 90.7048 39.6679 89.5719 40.6458Z" fill="#4D8F41"/>
<mask id="mask0_936_197" style="mask-type:luminance" maskUnits="userSpaceOnUse" x="89" y="4" width="34" height="38">
<path d="M104.141 18.6307C88.7688 25.0468 89.1385 37.1992 89.5797 40.6458C90.7127 39.6798 93.9088 37.068 101.839 31.2363C112.644 23.2818 117.844 17.0327 118.655 10.6166C118.786 9.38824 118.953 8.31492 118.858 6.70494C118.858 6.70494 120.36 12.9779 115.387 19.5967C110.414 26.2275 106.717 28.6365 101.195 32.8105C96.4847 36.3644 91.9052 39.9422 90.0687 41.6237C92.6685 41.9218 110.748 43.3529 119.311 26.8715C126.216 13.5742 118.428 4.34363 118.428 4.34363C118.428 4.34363 120.181 11.9523 104.165 18.6307" fill="white"/>
</mask>
<g mask="url(#mask0_936_197)">
<path fill-rule="evenodd" clip-rule="evenodd" d="M117.582 0.897278C117.582 0.897278 120.575 9.86548 117.82 15.0294C114.696 20.8849 111.571 23.9022 106.002 28.6367C101.41 32.5484 90.7369 39.7754 87.4692 43.9852L83.6172 31.8686L90.236 12.5488L117.582 0.897278Z" fill="#A4C392"/>
</g>
</g>
<defs>
<linearGradient id="paint0_linear_936_197" x1="33.3672" y1="81.7781" x2="37.9348" y2="81.7781" gradientUnits="userSpaceOnUse">
<stop stop-color="#C4C6C8"/>
<stop offset="0.36" stop-color="#939598"/>
<stop offset="0.59" stop-color="#A1A3A6"/>
<stop offset="0.65" stop-color="#A7A9AC"/>
<stop offset="0.87" stop-color="#A9ABAE"/>
<stop offset="1" stop-color="#D1D3D4"/>
</linearGradient>
<linearGradient id="paint1_linear_936_197" x1="40.1328" y1="81.7542" x2="47.0259" y2="81.7542" gradientUnits="userSpaceOnUse">
<stop stop-color="#C4C6C8"/>
<stop offset="0.36" stop-color="#939598"/>
<stop offset="0.59" stop-color="#A1A3A6"/>
<stop offset="0.65" stop-color="#A7A9AC"/>
<stop offset="0.87" stop-color="#A9ABAE"/>
<stop offset="1" stop-color="#D1D3D4"/>
</linearGradient>
<linearGradient id="paint2_linear_936_197" x1="49.7068" y1="0.897287" x2="55.1808" y2="0.897287" gradientUnits="userSpaceOnUse">
<stop stop-color="#C4C6C8"/>
<stop offset="0.36" stop-color="#939598"/>
<stop offset="0.59" stop-color="#A1A3A6"/>
<stop offset="0.65" stop-color="#A7A9AC"/>
<stop offset="0.87" stop-color="#A9ABAE"/>
<stop offset="1" stop-color="#D1D3D4"/>
</linearGradient>
<linearGradient id="paint3_linear_936_197" x1="57.75" y1="81.778" x2="64.655" y2="81.778" gradientUnits="userSpaceOnUse">
<stop stop-color="#C4C6C8"/>
<stop offset="0.36" stop-color="#939598"/>
<stop offset="0.59" stop-color="#A1A3A6"/>
<stop offset="0.65" stop-color="#A7A9AC"/>
<stop offset="0.87" stop-color="#A9ABAE"/>
<stop offset="1" stop-color="#D1D3D4"/>
</linearGradient>
<linearGradient id="paint4_linear_936_197" x1="67.625" y1="0.897289" x2="73.2301" y2="0.897289" gradientUnits="userSpaceOnUse">
<stop stop-color="#C4C6C8"/>
<stop offset="0.36" stop-color="#939598"/>
<stop offset="0.59" stop-color="#A1A3A6"/>
<stop offset="0.65" stop-color="#A7A9AC"/>
<stop offset="0.87" stop-color="#A9ABAE"/>
<stop offset="1" stop-color="#D1D3D4"/>
</linearGradient>
<linearGradient id="paint5_linear_936_197" x1="75.4062" y1="81.7542" x2="82.2994" y2="81.7542" gradientUnits="userSpaceOnUse">
<stop stop-color="#C4C6C8"/>
<stop offset="0.36" stop-color="#939598"/>
<stop offset="0.59" stop-color="#A1A3A6"/>
<stop offset="0.65" stop-color="#A7A9AC"/>
<stop offset="0.87" stop-color="#A9ABAE"/>
<stop offset="1" stop-color="#D1D3D4"/>
</linearGradient>
<linearGradient id="paint6_linear_936_197" x1="83.6369" y1="0.897292" x2="88.9558" y2="0.897292" gradientUnits="userSpaceOnUse">
<stop stop-color="#C4C6C8"/>
<stop offset="0.36" stop-color="#939598"/>
<stop offset="0.59" stop-color="#A1A3A6"/>
<stop offset="0.65" stop-color="#A7A9AC"/>
<stop offset="0.87" stop-color="#A9ABAE"/>
<stop offset="1" stop-color="#D1D3D4"/>
</linearGradient>
<linearGradient id="paint7_linear_936_197" x1="90.9766" y1="81.778" x2="97.8816" y2="81.778" gradientUnits="userSpaceOnUse">
<stop stop-color="#C4C6C8"/>
<stop offset="0.36" stop-color="#939598"/>
<stop offset="0.59" stop-color="#A1A3A6"/>
<stop offset="0.65" stop-color="#A7A9AC"/>
<stop offset="0.87" stop-color="#A9ABAE"/>
<stop offset="1" stop-color="#D1D3D4"/>
</linearGradient>
<linearGradient id="paint8_linear_936_197" x1="100.863" y1="0.89729" x2="106.457" y2="0.89729" gradientUnits="userSpaceOnUse">
<stop stop-color="#C4C6C8"/>
<stop offset="0.36" stop-color="#939598"/>
<stop offset="0.59" stop-color="#A1A3A6"/>
<stop offset="0.65" stop-color="#A7A9AC"/>
<stop offset="0.87" stop-color="#A9ABAE"/>
<stop offset="1" stop-color="#D1D3D4"/>
</linearGradient>
<linearGradient id="paint9_linear_936_197" x1="109.289" y1="0.897289" x2="110.052" y2="0.897289" gradientUnits="userSpaceOnUse">
<stop stop-color="#C4C6C8"/>
<stop offset="0.36" stop-color="#939598"/>
<stop offset="0.59" stop-color="#A1A3A6"/>
<stop offset="0.65" stop-color="#A7A9AC"/>
<stop offset="0.87" stop-color="#A9ABAE"/>
<stop offset="1" stop-color="#D1D3D4"/>
</linearGradient>
<linearGradient id="paint10_linear_936_197" x1="113.391" y1="0.897249" x2="118.328" y2="0.897249" gradientUnits="userSpaceOnUse">
<stop stop-color="#C4C6C8"/>
<stop offset="0.36" stop-color="#939598"/>
<stop offset="0.59" stop-color="#A1A3A6"/>
<stop offset="0.65" stop-color="#A7A9AC"/>
<stop offset="0.87" stop-color="#A9ABAE"/>
<stop offset="1" stop-color="#D1D3D4"/>
</linearGradient>
<linearGradient id="paint11_linear_936_197" x1="120.789" y1="0.897079" x2="125.869" y2="0.897079" gradientUnits="userSpaceOnUse">
<stop stop-color="#C4C6C8"/>
<stop offset="0.36" stop-color="#939598"/>
<stop offset="0.59" stop-color="#A1A3A6"/>
<stop offset="0.65" stop-color="#A7A9AC"/>
<stop offset="0.87" stop-color="#A9ABAE"/>
<stop offset="1" stop-color="#D1D3D4"/>
</linearGradient>
<linearGradient id="paint12_linear_936_197" x1="132.742" y1="81.778" x2="139.647" y2="81.778" gradientUnits="userSpaceOnUse">
<stop stop-color="#C4C6C8"/>
<stop offset="0.36" stop-color="#939598"/>
<stop offset="0.59" stop-color="#A1A3A6"/>
<stop offset="0.65" stop-color="#A7A9AC"/>
<stop offset="0.87" stop-color="#A9ABAE"/>
<stop offset="1" stop-color="#D1D3D4"/>
</linearGradient>
<linearGradient id="paint13_linear_936_197" x1="142.617" y1="0.897255" x2="147.483" y2="0.897255" gradientUnits="userSpaceOnUse">
<stop stop-color="#C4C6C8"/>
<stop offset="0.36" stop-color="#939598"/>
<stop offset="0.59" stop-color="#A1A3A6"/>
<stop offset="0.65" stop-color="#A7A9AC"/>
<stop offset="0.87" stop-color="#A9ABAE"/>
<stop offset="1" stop-color="#D1D3D4"/>
</linearGradient>
<linearGradient id="paint14_linear_936_197" x1="154.578" y1="0.89729" x2="160.529" y2="0.89729" gradientUnits="userSpaceOnUse">
<stop stop-color="#C4C6C8"/>
<stop offset="0.36" stop-color="#939598"/>
<stop offset="0.59" stop-color="#A1A3A6"/>
<stop offset="0.65" stop-color="#A7A9AC"/>
<stop offset="0.87" stop-color="#A9ABAE"/>
<stop offset="1" stop-color="#D1D3D4"/>
</linearGradient>
<linearGradient id="paint15_linear_936_197" x1="163.5" y1="0.897249" x2="168.437" y2="0.897249" gradientUnits="userSpaceOnUse">
<stop stop-color="#C4C6C8"/>
<stop offset="0.36" stop-color="#939598"/>
<stop offset="0.59" stop-color="#A1A3A6"/>
<stop offset="0.65" stop-color="#A7A9AC"/>
<stop offset="0.87" stop-color="#A9ABAE"/>
<stop offset="1" stop-color="#D1D3D4"/>
</linearGradient>
<linearGradient id="paint16_linear_936_197" x1="171.344" y1="0.897289" x2="176.949" y2="0.897289" gradientUnits="userSpaceOnUse">
<stop stop-color="#C4C6C8"/>
<stop offset="0.36" stop-color="#939598"/>
<stop offset="0.59" stop-color="#A1A3A6"/>
<stop offset="0.65" stop-color="#A7A9AC"/>
<stop offset="0.87" stop-color="#A9ABAE"/>
<stop offset="1" stop-color="#D1D3D4"/>
</linearGradient>
<linearGradient id="paint17_linear_936_197" x1="179.695" y1="0.897288" x2="186.171" y2="0.897288" gradientUnits="userSpaceOnUse">
<stop stop-color="#C4C6C8"/>
<stop offset="0.36" stop-color="#939598"/>
<stop offset="0.59" stop-color="#A1A3A6"/>
<stop offset="0.65" stop-color="#A7A9AC"/>
<stop offset="0.87" stop-color="#A9ABAE"/>
<stop offset="1" stop-color="#D1D3D4"/>
</linearGradient>
<linearGradient id="paint18_linear_936_197" x1="189.153" y1="81.778" x2="196.058" y2="81.778" gradientUnits="userSpaceOnUse">
<stop stop-color="#C4C6C8"/>
<stop offset="0.36" stop-color="#939598"/>
<stop offset="0.59" stop-color="#A1A3A6"/>
<stop offset="0.65" stop-color="#A7A9AC"/>
<stop offset="0.87" stop-color="#A9ABAE"/>
<stop offset="1" stop-color="#D1D3D4"/>
</linearGradient>
<linearGradient id="paint19_linear_936_197" x1="198.734" y1="81.778" x2="204.84" y2="81.778" gradientUnits="userSpaceOnUse">
<stop stop-color="#C4C6C8"/>
<stop offset="0.36" stop-color="#939598"/>
<stop offset="0.59" stop-color="#A1A3A6"/>
<stop offset="0.65" stop-color="#A7A9AC"/>
<stop offset="0.87" stop-color="#A9ABAE"/>
<stop offset="1" stop-color="#D1D3D4"/>
</linearGradient>
<linearGradient id="paint20_linear_936_197" x1="207.039" y1="81.778" x2="213.944" y2="81.778" gradientUnits="userSpaceOnUse">
<stop stop-color="#C4C6C8"/>
<stop offset="0.36" stop-color="#939598"/>
<stop offset="0.59" stop-color="#A1A3A6"/>
<stop offset="0.65" stop-color="#A7A9AC"/>
<stop offset="0.87" stop-color="#A9ABAE"/>
<stop offset="1" stop-color="#D1D3D4"/>
</linearGradient>
<linearGradient id="paint21_linear_936_197" x1="216.43" y1="0.897081" x2="221.498" y2="0.897081" gradientUnits="userSpaceOnUse">
<stop stop-color="#C4C6C8"/>
<stop offset="0.36" stop-color="#939598"/>
<stop offset="0.59" stop-color="#A1A3A6"/>
<stop offset="0.65" stop-color="#A7A9AC"/>
<stop offset="0.87" stop-color="#A9ABAE"/>
<stop offset="1" stop-color="#D1D3D4"/>
</linearGradient>
<linearGradient id="paint22_linear_936_197" x1="224.422" y1="0.897288" x2="230.898" y2="0.897288" gradientUnits="userSpaceOnUse">
<stop stop-color="#C4C6C8"/>
<stop offset="0.36" stop-color="#939598"/>
<stop offset="0.59" stop-color="#A1A3A6"/>
<stop offset="0.65" stop-color="#A7A9AC"/>
<stop offset="0.87" stop-color="#A9ABAE"/>
<stop offset="1" stop-color="#D1D3D4"/>
</linearGradient>
<linearGradient id="paint23_linear_936_197" x1="234.172" y1="0.897249" x2="239.109" y2="0.897249" gradientUnits="userSpaceOnUse">
<stop stop-color="#C4C6C8"/>
<stop offset="0.36" stop-color="#939598"/>
<stop offset="0.59" stop-color="#A1A3A6"/>
<stop offset="0.65" stop-color="#A7A9AC"/>
<stop offset="0.87" stop-color="#A9ABAE"/>
<stop offset="1" stop-color="#D1D3D4"/>
</linearGradient>
<linearGradient id="paint24_linear_936_197" x1="241.528" y1="0.897292" x2="246.846" y2="0.897292" gradientUnits="userSpaceOnUse">
<stop stop-color="#C4C6C8"/>
<stop offset="0.36" stop-color="#939598"/>
<stop offset="0.59" stop-color="#A1A3A6"/>
<stop offset="0.65" stop-color="#A7A9AC"/>
<stop offset="0.87" stop-color="#A9ABAE"/>
<stop offset="1" stop-color="#D1D3D4"/>
</linearGradient>
<linearGradient id="paint25_linear_936_197" x1="249.711" y1="0.897289" x2="250.474" y2="0.897289" gradientUnits="userSpaceOnUse">
<stop stop-color="#C4C6C8"/>
<stop offset="0.36" stop-color="#939598"/>
<stop offset="0.59" stop-color="#A1A3A6"/>
<stop offset="0.65" stop-color="#A7A9AC"/>
<stop offset="0.87" stop-color="#A9ABAE"/>
<stop offset="1" stop-color="#D1D3D4"/>
</linearGradient>
<linearGradient id="paint26_linear_936_197" x1="253.512" y1="81.778" x2="259.606" y2="81.778" gradientUnits="userSpaceOnUse">
<stop stop-color="#C4C6C8"/>
<stop offset="0.36" stop-color="#939598"/>
<stop offset="0.59" stop-color="#A1A3A6"/>
<stop offset="0.65" stop-color="#A7A9AC"/>
<stop offset="0.87" stop-color="#A9ABAE"/>
<stop offset="1" stop-color="#D1D3D4"/>
</linearGradient>
<clipPath id="clip0_936_197">
<rect width="291.359" height="84.3751" fill="white" transform="translate(0.8125 0.897278)"/>
</clipPath>
</defs>
</svg>
