<svg width="149" height="51" viewBox="0 0 149 51" fill="none" xmlns="http://www.w3.org/2000/svg">
<path d="M38.384 45.9905C42.9671 44.3348 46.5361 42.1657 48.99 39.5408C50.9081 37.4943 53.0083 33.5182 55.2277 27.7226C56.1371 25.3625 57.0573 22.7124 57.9667 19.8443L61.5321 20.3055C61.2362 23.4835 61.0413 25.3571 60.9565 25.8669C60.6281 27.5712 60.0128 28.436 59.1287 28.436C58.6686 28.436 58.0695 28.3045 57.346 28.0468C57.2648 28.018 57.1746 28.036 57.1096 28.0919L56.6441 28.4936C56.5394 28.5855 56.5394 28.7639 56.6441 28.8557C57.3947 29.5043 58.2085 29.834 59.0637 29.834C63.0189 29.834 65.0253 27.1785 65.0253 21.9413C65.0253 21.3342 65.0091 20.8243 64.9784 20.4208C65.9058 20.2713 66.7737 19.8893 67.5622 19.2822C68.441 18.603 68.8848 17.8536 68.8848 17.0501C68.8848 15.6142 68.0657 14.8539 66.5175 14.8539C64.4678 14.8539 62.9395 16.1601 61.9687 18.7399L58.5549 18.1886C60.2979 14.6702 62.1564 12.4831 64.0835 11.685C64.8557 11.3517 66.4237 11.0274 68.7477 10.7247C71.9576 10.2527 72.1688 10.0239 72.2824 9.90143C72.3221 9.85819 72.3456 9.80054 72.3456 9.73928V9.50868C72.3456 9.44563 72.3203 9.38438 72.2734 9.33934C72.2265 9.2943 72.1652 9.26908 72.1002 9.27088C68.2425 9.38618 65.3844 9.66002 63.5981 10.0834C61.579 10.5878 59.4932 11.6075 57.3947 13.1136C57.3857 13.1226 57.3767 13.1298 57.3676 13.137C55.4099 15.0521 54.0458 16.4718 53.3115 17.3653L50.7872 16.9293C50.6753 16.9095 50.5634 16.9726 50.5237 17.0789L50.1917 17.94C50.1665 18.0067 50.1719 18.0806 50.2062 18.1436C50.2404 18.2067 50.3018 18.2499 50.3722 18.2607L52.6059 18.6661C48.3946 28.481 45.5726 34.6622 44.2193 37.0349C43.2612 38.6869 41.8682 40.3083 40.0783 41.8559C35.8832 45.4374 31.0331 47.2552 25.6615 47.2552C18.8393 47.2552 13.1862 45.1131 8.85938 40.8866C4.71297 36.8151 2.6091 31.7292 2.6091 25.7679C2.6091 19.8065 4.77974 15.0647 9.05786 10.8797C13.5597 6.50006 19.1442 4.28053 25.6597 4.28053C29.2612 4.28053 32.5776 5.03539 35.5205 6.52709C34.6815 7.43688 33.4636 8.7196 31.809 10.4365C31.8035 10.4419 31.7963 10.4491 31.7927 10.4563C29.5084 13.4019 28.35 16.4123 28.3482 19.4065C28.3482 22.0692 29.1205 24.2167 30.6452 25.7895C32.1698 27.3658 34.2322 28.1639 36.7727 28.1639C37.1805 28.1639 37.7742 28.1315 38.5879 28.0667C38.7124 28.0558 38.8081 27.9532 38.8081 27.8288V27.292C38.8081 27.1605 38.7016 27.0542 38.5681 27.0542H36.9712C34.741 27.0542 32.9313 26.3516 31.5852 24.968C30.2392 23.5825 29.5553 21.7107 29.5553 19.4065C29.5553 17.1023 30.5044 14.5963 32.3737 11.8886C34.1077 9.40239 35.645 7.84223 36.9478 7.24771C38.6006 8.33226 40.109 9.85459 41.4334 11.7751C43.3911 14.5585 44.3853 17.5347 44.3853 20.6154C44.3853 24.4887 42.8841 28.1531 39.9195 31.5077C36.7439 35.1576 32.9313 37.0078 28.5882 37.0078C26.2082 37.0078 23.9943 36.2872 22.0077 34.8658C19.9092 33.3489 18.8465 31.5725 18.8465 29.5926C18.8465 28.2126 19.1316 26.829 19.6927 25.4832C19.7054 25.4526 19.7108 25.4219 19.7108 25.3913C19.7108 25.0941 19.5357 24.7734 19.1749 24.4167C19.1171 24.359 19.0323 24.3356 18.9529 24.3536C18.8735 24.3716 18.8086 24.4293 18.7815 24.5068C18.0219 26.6704 17.6376 28.3819 17.6376 29.5926C17.6376 31.8896 18.8122 33.9091 21.129 35.5972C23.4223 37.2709 25.9322 38.1176 28.59 38.1176C33.2524 38.1176 37.3646 36.1539 40.8145 32.2805C43.9884 28.6468 45.5978 24.7211 45.5978 20.6136C45.5978 17.1636 44.4629 13.8451 42.2255 10.7482C40.6936 8.63492 39.3764 7.27113 38.2126 6.59194C41.0797 4.48231 45.8974 3.41397 52.5464 3.41397C56.8516 3.41397 62.0012 4.20486 67.8564 5.76502C69.2565 6.14335 72.2445 7.35941 76.7374 9.37717C80.1693 10.9193 83.4027 11.7012 86.3528 11.7012C88.0254 11.7012 89.7883 11.2076 91.589 10.2329C93.6586 9.11954 94.7088 7.82962 94.7088 6.39737C94.7088 6.29468 94.6438 6.2028 94.5446 6.17038C94.4453 6.13795 94.3389 6.17218 94.2775 6.25505C92.161 9.13216 89.4942 10.5896 86.3528 10.5896C83.3846 10.5896 80.0177 9.67443 76.344 7.86745C71.6311 5.54523 68.2569 3.87878 66.0303 2.77262C66.0267 2.77262 66.0231 2.76901 66.0195 2.76721C61.837 0.931412 57.3045 0 52.5482 0C46.9728 0 41.5453 1.88624 36.4155 5.60468C32.7184 3.98687 29.1024 3.16536 25.6651 3.16536C18.408 3.16536 12.2534 5.36688 7.37259 9.70866C2.47918 14.0631 0 19.4642 0 25.7679C0 32.0715 2.41062 37.7609 7.1669 41.9964C11.9142 46.2229 18.1356 48.3649 25.6579 48.3649C29.7917 48.3649 34.0734 47.5668 38.3822 45.9905H38.384ZM67.2754 16.7618C67.2754 17.259 67.0137 17.686 66.4778 18.0643C65.9564 18.4319 65.4024 18.63 64.8287 18.6516C64.8485 18.4066 64.982 17.9779 65.4511 17.268C65.8391 16.6789 66.2072 16.3691 66.5157 16.3691C67.2754 16.3691 67.2754 16.6555 67.2754 16.7636V16.7618Z" fill="#FDFDFD"/>
<path d="M131.68 14.3604C127.084 19.6498 123.754 23.8961 121.781 26.9822L112.399 35.927C110.06 38.1735 108.258 39.3139 107.04 39.3139C106.011 39.3139 105.881 38.8869 105.881 38.5176C105.885 38.451 105.979 38.1213 107.033 36.7016L113.222 28.355C114.091 27.1659 114.532 26.0742 114.532 25.1067C114.532 23.7898 113.96 22.2206 111.231 22.2206C108.985 22.2206 105.916 23.615 102.098 26.3696L104.848 21.8927C104.902 21.8045 104.893 21.691 104.824 21.6117C104.756 21.5324 104.644 21.509 104.548 21.5504C104.261 21.6729 103.797 21.9846 103.132 22.4999C102.437 23.0385 102.219 23.1664 102.154 23.1971C102.071 23.1899 101.843 23.152 101.212 22.9773C100.629 22.8169 100.183 22.7377 99.8513 22.7377C99.0123 22.7377 98.2725 23.2403 97.65 24.2348L95.5263 27.7532C93.7544 29.8142 91.7101 31.8842 89.4456 33.9074C85.6925 37.2655 82.8363 38.968 80.9543 38.968C79.6173 38.968 79.4621 38.4474 79.4621 38.0564C79.4621 37.7195 79.6407 37.0277 80.4924 35.6477L88.944 21.8927C88.9927 21.8135 88.9909 21.7144 88.9404 21.6369C88.8899 21.5594 88.7978 21.518 88.7058 21.5306C88.3828 21.5775 87.9426 21.8621 87.3165 22.4242C86.5641 23.0998 86.362 23.1394 86.3457 23.1412C86.2537 23.1412 85.9939 23.116 85.2685 22.9448C84.6659 22.8061 84.2328 22.7377 83.9495 22.7377C83.1538 22.7377 82.571 23.0277 82.2192 23.5952L77.0316 31.5906C76.2846 32.6913 75.1046 34.1362 73.5258 35.8801C71.0538 38.5753 69.9405 39.141 69.4425 39.141C68.4573 39.141 68.0189 38.7536 68.0189 37.8835C68.0189 37.0133 68.387 35.9684 69.1159 34.7848L77.0334 21.8927C77.084 21.8135 77.0804 21.709 77.0262 21.6297C76.9703 21.5522 76.8747 21.5144 76.779 21.5342C76.6275 21.5666 76.346 21.6982 75.5088 22.4224C74.7185 23.1052 74.4749 23.1412 74.4352 23.1412C74.2926 23.1412 73.9733 23.107 73.2569 22.9448C72.3295 22.7377 72.2844 22.7377 72.2393 22.7377C71.3136 22.7377 70.6424 23.0439 70.2401 23.6547L65.316 31.4825C63.8346 33.8515 63.084 35.945 63.084 37.7105C63.084 39.7391 64.3055 40.7696 66.7162 40.7696C68.3527 40.7696 69.7619 40.3876 70.9077 39.6364C71.6348 39.1554 72.8636 38.051 74.6607 36.2657C75.1082 39.2545 76.4867 40.7696 78.762 40.7696C81.9106 40.7696 85.6348 38.95 89.8317 35.3595C90.6726 34.6316 91.517 33.8461 92.3578 33.0102L87.4734 41.0993C87.45 41.1389 87.4392 41.1821 87.4392 41.2236C87.4392 41.3551 87.5456 41.4632 87.6773 41.4632C87.7477 41.4632 87.8091 41.4326 87.8524 41.3857C89.5178 39.9463 90.0068 39.7913 90.1385 39.7913C90.1908 39.7913 90.4019 39.8129 91.2481 40.0147C91.9284 40.1769 92.3578 40.2507 92.6014 40.2507C93.3629 40.2507 94.1477 39.5733 94.9994 38.1825C96.1073 36.4188 96.9517 35.0748 97.5255 34.1596C98.8445 32.1833 100.49 30.2016 102.417 28.2703C105.109 25.6418 107.291 24.3104 108.904 24.3104C109.25 24.3104 109.663 24.3591 109.663 24.5897C109.663 24.7518 109.55 25.1734 108.781 26.1733L103.256 33.4822C102.296 34.7649 101.809 35.9486 101.809 36.9989C101.809 37.0475 101.809 37.098 101.813 37.1502C101.955 39.5913 103.334 40.8272 105.91 40.8272C108.05 40.8272 110.367 39.6436 112.798 37.307C115.6 34.6064 117.778 32.4986 119.401 30.9222C116.944 35.0028 114.847 38.4203 113.16 41.0939C113.135 41.1335 113.124 41.1767 113.124 41.2218C113.124 41.2218 113.124 41.2218 113.124 41.2236C113.124 41.3551 113.231 41.4632 113.362 41.4632C113.409 41.4632 113.451 41.4506 113.487 41.4271C113.624 41.3623 113.92 41.1911 114.766 40.5822C115.638 39.9517 115.856 39.9102 115.888 39.9084C115.908 39.9084 116.053 39.921 116.832 40.103C117.633 40.2886 117.893 40.3102 118.018 40.3102C118.992 40.3102 119.912 39.5932 120.753 38.1771C122.741 34.7722 124.055 32.6463 124.658 31.8482H126.994C128.398 31.9311 128.699 32.1058 128.759 32.1563C128.744 32.3779 128.548 33.039 127.49 35.0082C126.599 36.6692 126.164 37.761 126.166 38.3429C126.166 39.449 126.715 40.7678 129.333 40.7678C131.366 40.7678 134.248 38.9968 138.147 35.3505C139.258 34.3109 141.794 31.6158 145.68 27.3371C145.725 27.2884 145.747 27.2218 145.741 27.1551C145.736 27.0885 145.702 27.0272 145.648 26.9876L145.115 26.584C145.018 26.5102 144.879 26.5228 144.796 26.6128C135.393 36.8223 132.175 38.9662 131.13 38.9662C130.652 38.9662 130.637 38.8203 130.637 38.7518C130.653 38.6563 130.823 38.2366 131.996 36.399C132.961 34.8874 133.43 33.8858 133.43 33.3363C133.43 32.8553 133.08 32.1491 132.362 31.1816C136.976 29.0143 139.219 26.8939 139.219 24.7032C139.219 23.57 138.715 22.2206 136.319 22.2206C134.396 22.2206 131.839 23.2944 128.703 25.4202C129.315 24.6059 129.686 24.1159 129.879 23.8636C133.118 22.5827 136.996 19.9236 141.402 15.9602C146.514 11.3806 149 7.76482 149 4.90573C149 4.36166 148.672 3.87703 148.024 3.46628C147.41 3.07894 146.741 2.88257 146.034 2.88257C143.14 2.88257 138.445 6.63704 131.68 14.3604ZM144.836 4.39589C144.971 4.39589 145.33 4.39589 145.33 5.35973C145.285 7.21354 143.694 10.0096 140.594 13.6722C137.492 17.3564 134.293 20.0804 131.074 21.7738C131.971 19.8606 134.062 16.679 137.308 12.2976C142.144 5.76508 144.069 4.39589 144.834 4.39589H144.836ZM133.192 24.7698C134.219 24.7698 134.351 25.2256 134.351 25.6256C134.351 26.5822 133.777 27.5262 132.64 28.4342C131.693 29.2161 130.579 29.8016 129.329 30.1745C128.652 30.3817 127.348 30.4934 125.451 30.5078C126.137 29.5368 127.243 28.4036 128.752 27.1335C130.65 25.5661 132.144 24.7716 133.192 24.7716V24.7698Z" fill="#FDFDFD"/>
<path d="M58.0049 44.7042C58.0248 44.7168 58.0392 44.7294 58.0518 44.7402C58.0518 44.7402 58.0518 44.742 58.0554 44.7438C58.1168 44.8231 58.1871 44.9095 58.2647 45.005C58.3441 45.1401 58.4073 45.2717 58.4524 45.396C58.4614 45.4374 58.4704 45.4788 58.4831 45.5131C58.4885 45.5311 58.4939 45.5491 58.4957 45.5671C58.4975 45.5815 58.5011 45.5959 58.5065 45.6085C58.5119 45.6698 58.5209 45.722 58.5336 45.7689V50.1899C58.5336 50.2206 58.5354 50.253 58.5426 50.2908C58.5426 50.3088 58.5462 50.3269 58.5498 50.3431C58.6292 50.7106 58.9143 50.9106 59.2914 50.8655C59.6649 50.8205 59.8959 50.5647 59.8959 50.1989V45.7293C59.9013 45.7022 59.9067 45.6644 59.9139 45.6158C59.9301 45.5761 59.9392 45.5329 59.9392 45.4896L59.9446 45.4716C59.9536 45.4464 59.9608 45.4212 59.9716 45.3852C60.015 45.2428 60.0781 45.1095 60.1593 44.9924C60.2207 44.9113 60.282 44.8339 60.3452 44.76C60.4877 44.6447 60.5599 44.5853 60.5996 44.551C60.8395 44.4627 60.9604 44.4447 61.0128 44.4411C61.0452 44.4411 61.1697 44.4447 61.4602 44.569C61.4945 44.6033 61.5378 44.6411 61.5938 44.6861C61.6136 44.7024 61.6298 44.715 61.6407 44.7258C61.6425 44.7294 61.6461 44.733 61.6497 44.7366C61.711 44.8159 61.7814 44.9023 61.859 44.9978C61.942 45.1365 62.007 45.2735 62.0503 45.4014C62.0737 45.4896 62.0882 45.5455 62.0936 45.5761C62.099 45.6013 62.108 45.6482 62.1188 45.7329C62.1188 46.4265 62.1188 47.2318 62.1224 48.1434C62.1242 49.064 62.126 49.7413 62.126 50.1719C62.126 50.3917 62.191 50.5647 62.3191 50.6872C62.4057 50.77 62.5627 50.8673 62.8189 50.8583C63.2321 50.8439 63.4883 50.5881 63.4883 50.1899V45.9292C63.4883 45.8626 63.4829 45.7977 63.4703 45.7365C63.4685 45.7256 63.4667 45.7148 63.4703 45.7022C63.4739 45.6752 63.4739 45.6464 63.4703 45.6176C63.4468 45.441 63.418 45.2662 63.3837 45.0987C63.3476 44.9113 63.2862 44.7294 63.2014 44.5582C63.1744 44.4862 63.1365 44.4141 63.0878 44.3456C63.0571 44.3006 63.0391 44.27 63.03 44.252C63.0246 44.2394 63.0174 44.2267 63.0102 44.2141C62.9597 44.1385 62.9182 44.0826 62.8785 44.0412C62.781 43.9133 62.6619 43.7854 62.5122 43.6502C62.5014 43.6394 62.4887 43.6304 62.4761 43.6214C62.4635 43.6124 62.4274 43.5818 62.3209 43.4899C62.3119 43.4809 62.3029 43.4737 62.2921 43.4665C62.1892 43.3944 62.0864 43.335 61.9799 43.2827C61.7183 43.1692 61.6154 43.1386 61.5631 43.1242C61.5487 43.1206 61.5342 43.117 61.5198 43.1152C61.2275 43.0791 60.8937 43.0755 60.5274 43.1062C60.4841 43.1098 60.4408 43.1224 60.4029 43.1422C60.3668 43.1602 60.3361 43.171 60.3036 43.1782C60.2152 43.1944 60.1268 43.2215 60.0402 43.2611C60.0222 43.2701 60.0059 43.2791 59.9897 43.2899C59.9446 43.3206 59.9049 43.3458 59.8688 43.3674C59.8201 43.398 59.7732 43.4286 59.719 43.4683L59.6757 43.5025C59.6306 43.5349 59.6 43.5602 59.5837 43.5728C59.5512 43.5962 59.5206 43.625 59.4953 43.6502C59.3798 43.7619 59.286 43.861 59.2084 43.9511C59.1344 43.8628 59.0442 43.7691 58.9396 43.6665C58.9287 43.6574 58.9197 43.6484 58.9089 43.6394L58.7086 43.4881C58.6148 43.416 58.5119 43.3548 58.4073 43.2989C58.4001 43.2953 58.391 43.2917 58.3838 43.2881C58.124 43.1782 58.0374 43.1494 57.9941 43.135C57.9724 43.1278 57.9508 43.1242 57.9291 43.1224C57.7577 43.1044 57.6007 43.0954 57.46 43.0918C57.3174 43.0882 57.1406 43.0972 56.9349 43.1134C56.8916 43.117 56.8501 43.1296 56.8104 43.1494C56.7743 43.1674 56.7419 43.18 56.7112 43.1854C56.6192 43.2016 56.5307 43.2305 56.4459 43.2701C56.4297 43.2773 56.4135 43.2863 56.399 43.2953C56.3557 43.326 56.3124 43.353 56.2799 43.3728C56.2294 43.4034 56.1807 43.4359 56.1356 43.4701C56.1302 43.4737 56.1248 43.4773 56.1193 43.4827C55.9714 43.6052 55.9335 43.6376 55.9173 43.652C55.7693 43.7836 55.6502 43.9115 55.5528 44.0394C55.5131 44.0808 55.4734 44.1367 55.4175 44.2195L55.3272 44.3673C55.2875 44.4321 55.2569 44.4916 55.2334 44.5474C55.1414 44.7204 55.0764 44.9041 55.0385 45.0969C55.0043 45.2717 54.9772 45.45 54.9592 45.6266C54.9555 45.6626 54.9592 45.6986 54.9501 45.7329C54.9411 45.7779 54.9375 45.8247 54.9375 45.8716C54.9375 45.895 54.9375 45.9202 54.9411 45.9436V50.1863C54.9411 50.5845 55.1955 50.8403 55.6051 50.8547C55.8577 50.8637 56.0129 50.77 56.0995 50.689C56.2294 50.5665 56.298 50.3953 56.3016 50.1701V48.1397C56.3016 47.1741 56.3034 46.385 56.3088 45.7329C56.3178 45.6626 56.3269 45.6085 56.3341 45.5743C56.3377 45.5599 56.3395 45.5419 56.3413 45.5275C56.3431 45.5149 56.3521 45.4806 56.3774 45.3996C56.4153 45.2717 56.4802 45.1365 56.5704 44.9942C56.63 44.9167 56.6913 44.8411 56.7509 44.769C56.879 44.6663 56.9638 44.5961 57.0089 44.56C57.2453 44.4718 57.3644 44.4537 57.4185 44.4519C57.4492 44.4501 57.5719 44.4555 57.8588 44.5762C57.8966 44.6177 57.9454 44.6609 58.0049 44.706V44.7042Z" fill="#FDFDFD"/>
<path d="M66.8892 43.1152C66.8675 43.1152 66.8477 43.1152 66.8278 43.1206C66.5355 43.1747 66.2937 43.2413 66.0844 43.3206C66.0736 43.3242 66.0628 43.3296 66.0538 43.335C65.9924 43.3656 65.9365 43.3909 65.8859 43.4125C65.821 43.4395 65.756 43.4701 65.6929 43.5008C65.6803 43.508 65.6676 43.5152 65.655 43.5224C65.6081 43.5548 65.563 43.5854 65.5197 43.6143C65.4818 43.6395 65.4421 43.6665 65.4024 43.6917C65.3952 43.6971 65.3861 43.7025 65.3789 43.7079C65.3031 43.7656 65.2526 43.8052 65.2292 43.8286C65.2201 43.8359 65.2129 43.8431 65.2075 43.8467C65.1931 43.8557 65.1786 43.8683 65.1678 43.8791C65.0993 43.9439 65.0361 44.0034 64.9784 44.0628C64.9152 44.1277 64.8539 44.198 64.7889 44.2862L64.7294 44.3691C64.7294 44.3691 64.7203 44.3835 64.7167 44.3871C64.6951 44.4088 64.677 44.434 64.6626 44.461C64.6391 44.5042 64.6139 44.5457 64.5868 44.5871C64.5453 44.6484 64.5128 44.7114 64.4876 44.7727C64.3974 44.9402 64.3288 45.1204 64.2801 45.3059C64.2332 45.4879 64.2007 45.6717 64.1826 45.8536C64.1754 45.8968 64.1718 45.9437 64.1682 45.9905C64.1646 46.0392 64.1628 46.0842 64.1628 46.1256C64.1628 46.4013 64.1628 46.6769 64.1592 46.9526C64.1592 47.0102 64.1592 47.0661 64.1592 47.1237C64.1592 47.3471 64.1646 47.5723 64.1718 47.7939C64.1718 47.7993 64.1718 47.8029 64.1718 47.8065C64.1772 47.8786 64.1844 47.9488 64.1935 48.0209C64.2025 48.102 64.2169 48.1812 64.2368 48.2605C64.2963 48.5524 64.3685 48.7866 64.4551 48.9739C64.5616 49.2081 64.6572 49.3901 64.751 49.5288C64.7582 49.5396 64.7654 49.5486 64.7745 49.5576C64.7745 49.5612 64.7781 49.563 64.7799 49.5666C64.7853 49.5757 64.7907 49.5865 64.7961 49.5955C64.8142 49.6315 64.8376 49.6621 64.8665 49.6891C64.8827 49.7162 64.9026 49.7396 64.926 49.7612C64.9314 49.7666 64.9351 49.772 64.9405 49.7774C64.9621 49.8117 64.9874 49.8423 65.0199 49.8675C65.0487 49.9107 65.0866 49.9468 65.1317 49.9738C65.1588 50.008 65.1859 50.035 65.2147 50.0585C65.2256 50.0693 65.2364 50.0783 65.2472 50.0855C65.2562 50.0927 65.2634 50.1017 65.2707 50.1071C65.2887 50.1287 65.3104 50.1467 65.3338 50.1612C65.3428 50.1702 65.3555 50.181 65.3717 50.1936C65.4078 50.226 65.4475 50.2494 65.4854 50.2675C65.4854 50.2675 65.4872 50.2675 65.4872 50.2693C65.507 50.2909 65.5305 50.3089 65.5558 50.3251L65.6803 50.4008C65.6803 50.4008 65.6875 50.4062 65.6929 50.4098L65.7344 50.4314C65.7506 50.4404 65.7651 50.4476 65.7759 50.453C65.7903 50.462 65.8048 50.4728 65.8228 50.4818C65.8282 50.4854 65.8336 50.4872 65.8372 50.4908C65.8589 50.5035 65.8805 50.5125 65.9022 50.5197C65.9148 50.5251 65.9311 50.5323 65.9509 50.5413C65.9599 50.5449 65.9671 50.5485 65.9726 50.5503C66.0123 50.5791 66.0574 50.6007 66.1079 50.6098C66.2306 50.6584 66.3443 50.6944 66.4453 50.7142C66.5355 50.7359 66.6636 50.7629 66.8423 50.7953C66.9217 50.8241 66.9992 50.8223 67.0552 50.8205H67.0588C67.0895 50.8295 67.1201 50.8331 67.1526 50.8331H69.4044C69.5506 50.8277 69.6787 50.8187 69.7906 50.8061C69.805 50.8079 69.8194 50.8079 69.8339 50.8079C69.8754 50.8079 69.9151 50.8007 69.953 50.7863C70.202 50.7413 70.4365 50.6782 70.6512 50.5953C70.6567 50.5917 70.6639 50.5899 70.6693 50.5881C70.727 50.5611 70.783 50.5359 70.8407 50.5107C70.9021 50.4836 70.9688 50.4512 71.0374 50.4152C71.0482 50.4098 71.0572 50.4044 71.0662 50.399C71.1096 50.3719 71.1493 50.3467 71.1889 50.3233C71.2341 50.2945 71.2828 50.2638 71.3369 50.2278C71.3423 50.2242 71.3477 50.2206 71.3531 50.217C71.4434 50.1485 71.4867 50.1125 71.5137 50.0837C71.5209 50.0747 71.53 50.0675 71.5408 50.0603C71.5498 50.0531 71.5588 50.0459 71.5661 50.0387C71.714 49.8999 71.8295 49.772 71.9233 49.6495C71.9468 49.6243 71.9684 49.5955 71.9937 49.5594C72.0099 49.536 72.0262 49.5126 72.0406 49.4928C72.046 49.4856 72.0514 49.4784 72.055 49.4712C72.0785 49.4333 72.1056 49.3919 72.1362 49.3505C72.185 49.282 72.2228 49.2117 72.2499 49.1397C72.3329 48.9811 72.3979 48.8046 72.4466 48.6136C72.4935 48.4262 72.5296 48.2443 72.5512 48.0695C72.5566 48.0299 72.5548 47.9867 72.5566 47.9398C72.5603 47.8948 72.5621 47.8461 72.5621 47.7921V46.9724C72.5621 46.6949 72.5603 46.4103 72.5548 46.131C72.5548 46.1238 72.5548 46.1166 72.553 46.1094C72.5476 46.0338 72.5386 45.9581 72.526 45.8824C72.5152 45.8176 72.5097 45.7581 72.5043 45.7023C72.5043 45.6861 72.5007 45.6716 72.4971 45.6572C72.4394 45.396 72.3672 45.16 72.2842 44.9564C72.2824 44.951 72.2788 44.942 72.2752 44.9348C72.2048 44.7925 72.111 44.6177 71.9955 44.416C71.9919 44.4087 71.9865 44.4015 71.9829 44.3943C71.9666 44.3601 71.9414 44.3277 71.9125 44.3007C71.9017 44.2862 71.8908 44.2736 71.8782 44.2592C71.8638 44.2358 71.8457 44.2124 71.8259 44.1926C71.8259 44.1926 71.8241 44.1908 71.8223 44.189C71.8151 44.1799 71.8078 44.1709 71.8006 44.1619C71.8006 44.1619 71.8006 44.1619 71.8006 44.1601C71.788 44.1421 71.7754 44.1259 71.7591 44.1097C71.7429 44.0863 71.723 44.0628 71.7014 44.043C71.6779 44.007 71.6473 43.9782 71.613 43.953C71.6058 43.9457 71.5967 43.9367 71.5877 43.9259C71.5769 43.9169 71.5679 43.9061 71.557 43.8989C71.5354 43.8683 71.5083 43.8449 71.4776 43.8232C71.4686 43.816 71.4596 43.807 71.4506 43.8016C71.4379 43.789 71.4235 43.7764 71.4073 43.7674C71.3964 43.7566 71.3838 43.7476 71.373 43.7386L71.3026 43.6881C71.2918 43.6791 71.2756 43.6665 71.2521 43.6503C71.2503 43.6467 71.2467 43.6449 71.2431 43.6413C71.207 43.6053 71.1637 43.5782 71.1168 43.562C71.115 43.5602 71.1132 43.5566 71.1096 43.5548C71.0717 43.5206 71.0284 43.4972 70.9778 43.4809C70.9778 43.4809 70.9742 43.4809 70.9652 43.4737C70.9616 43.4719 70.958 43.4683 70.9544 43.4647C70.9111 43.4287 70.8606 43.4017 70.8028 43.3909C70.7938 43.3873 70.7794 43.3819 70.7667 43.3765C70.7505 43.3692 70.7379 43.3638 70.727 43.3584C70.7397 43.3638 70.7523 43.3746 70.7667 43.3837H70.7649C70.7252 43.353 70.6783 43.3296 70.6278 43.317C70.5845 43.3044 70.543 43.29 70.5033 43.2756C70.4419 43.2503 70.3788 43.2287 70.312 43.2071C70.3012 43.2035 70.2904 43.1999 70.2777 43.1981C70.1713 43.1765 70.0324 43.1495 69.8627 43.117C69.8158 43.1062 69.7635 43.1008 69.6967 43.1008H69.648C69.6354 43.099 69.621 43.0954 69.6083 43.0954C69.5813 43.0882 69.5542 43.0846 69.5253 43.0846H67.3421C67.3421 43.0846 67.3276 43.0846 67.3204 43.0846C67.1508 43.0954 67.0101 43.1062 66.9054 43.117H66.891L66.8892 43.1152ZM65.9744 44.9997C66.2757 44.6664 66.6275 44.506 67.0443 44.506H69.6047C70.0179 44.506 70.3662 44.6682 70.6711 45.0015C70.9833 45.3438 71.1366 45.7455 71.1366 46.2301V47.711C71.1366 48.1956 70.9851 48.5992 70.6711 48.9433C70.3662 49.2784 70.0179 49.4423 69.6047 49.4423H67.0443C66.6275 49.4423 66.2775 49.2784 65.9744 48.9433C65.664 48.5992 65.5124 48.1956 65.5124 47.7092V46.2283C65.5124 45.7419 65.6622 45.342 65.9726 44.9997H65.9744Z" fill="#FDFDFD"/>
<path d="M81.615 46.9687V46.9237C81.5952 46.5057 81.3389 46.2445 80.9456 46.2445H74.5943V43.7655C74.5889 43.5511 74.5221 43.3818 74.394 43.2611C74.3092 43.1818 74.154 43.0863 73.9014 43.0953C73.4936 43.1115 73.241 43.362 73.241 43.7475V47.8082C73.241 47.8389 73.2392 47.9037 73.2266 48.0442C73.2266 48.0532 73.2266 48.064 73.2266 48.0731C73.2266 48.0839 73.2266 48.0947 73.2266 48.1055C73.2446 48.2856 73.2771 48.4676 73.3258 48.6478C73.3727 48.8315 73.4431 49.0063 73.5315 49.1684C73.5676 49.2585 73.6271 49.3648 73.7192 49.4945C73.7643 49.5702 73.8076 49.6314 73.8563 49.6801C73.9032 49.7467 73.9537 49.8098 74.0079 49.8692C74.0674 49.9323 74.1305 49.9953 74.1973 50.0566C74.2099 50.0674 74.219 50.0764 74.2316 50.0854C74.2514 50.0998 74.3074 50.1449 74.4012 50.2205C74.4048 50.2223 74.4066 50.2259 74.4102 50.2277C74.4607 50.2656 74.5077 50.2998 74.5528 50.3304C74.5961 50.3574 74.6448 50.3863 74.6917 50.4133C74.7603 50.4565 74.8324 50.4926 74.9082 50.5232L75.0887 50.5989C75.0887 50.5989 75.1013 50.6043 75.1049 50.6061C75.3052 50.6835 75.5289 50.7448 75.7707 50.7862C75.8086 50.8024 75.8501 50.8114 75.8952 50.8114H75.9151C75.9746 50.8168 76.0377 50.8223 76.0991 50.8277C76.1749 50.8331 76.2543 50.8367 76.3355 50.8367H78.5314C79.282 50.8367 80.0236 50.8331 80.7363 50.8277C80.8067 50.8277 80.8806 50.8168 80.9564 50.7934C80.9979 50.7844 81.0376 50.7664 81.0773 50.7412C81.099 50.7286 81.1206 50.716 81.1387 50.6997C81.1549 50.6871 81.1729 50.6727 81.1874 50.6565C81.1946 50.6511 81.2 50.6457 81.2054 50.6403C81.2271 50.6205 81.2487 50.5989 81.2668 50.5718L81.2704 50.5664C81.283 50.5502 81.2956 50.5322 81.3065 50.5142C81.3498 50.4331 81.3804 50.343 81.3985 50.2476C81.4021 50.2277 81.4039 50.2079 81.4039 50.1881V50.0764C81.3822 49.7233 81.1531 49.4873 80.7886 49.4495C80.776 49.4495 80.7634 49.4477 80.7525 49.4477H76.3012C76.2669 49.4441 76.2308 49.4441 76.1947 49.4477C76.1388 49.4296 76.0792 49.4278 76.0197 49.4404C76.0143 49.4404 76.0035 49.4368 75.989 49.4332C75.9024 49.4116 75.8375 49.3936 75.7996 49.3846C75.5831 49.3251 75.3864 49.2315 75.2132 49.1036C75.1699 49.0513 75.1157 49.0171 75.0778 48.9973C75.0634 48.9792 75.049 48.963 75.0327 48.9468C75.0273 48.9414 75.0219 48.9378 75.0183 48.9324C74.9894 48.9072 74.9624 48.8784 74.9389 48.8477C74.91 48.8135 74.883 48.7739 74.8541 48.7324C74.7729 48.6081 74.7097 48.4712 74.6628 48.3181L74.6303 48.2226C74.6303 48.183 74.6213 48.1433 74.6069 48.1055C74.5979 48.0568 74.5925 48.019 74.5889 47.9902V47.6317H80.9239C81.3389 47.6317 81.6096 47.3704 81.6096 46.9669L81.615 46.9687Z" fill="#FDFDFD"/>
<path d="M87.5423 50.8367C87.6884 50.8331 87.8165 50.8241 87.9302 50.8097C87.9447 50.8115 87.9591 50.8115 87.9735 50.8115C88.015 50.8115 88.0565 50.8043 88.0944 50.7881C88.3434 50.7448 88.578 50.6818 88.7909 50.5971C88.7963 50.5935 88.8017 50.5917 88.8071 50.5899C88.8667 50.5629 88.9226 50.5377 88.9786 50.5142C89.0417 50.4872 89.1067 50.4548 89.1788 50.4188C89.1897 50.4133 89.1987 50.4079 89.2077 50.4025C89.2492 50.3755 89.2889 50.3503 89.3304 50.3269C89.3755 50.2981 89.4242 50.2674 89.4766 50.2314C89.482 50.2278 89.4874 50.2242 89.491 50.2206C89.5776 50.1557 89.6227 50.1161 89.6534 50.0855C89.6606 50.0783 89.6714 50.071 89.6804 50.0638C89.6895 50.0566 89.6985 50.0494 89.7057 50.0422C89.8537 49.9035 89.9709 49.7756 90.0612 49.6531C90.0864 49.6261 90.1099 49.5954 90.1333 49.5612C90.1496 49.536 90.1658 49.5144 90.1803 49.4946C90.1857 49.4873 90.1911 49.4801 90.1947 49.4729C90.2163 49.4351 90.2452 49.3955 90.2759 49.3504C90.3246 49.282 90.3607 49.2135 90.3878 49.1414C90.4708 48.9793 90.5375 48.8027 90.5844 48.6154C90.6313 48.4334 90.6656 48.2515 90.6891 48.0695C90.6945 48.0299 90.6927 47.9884 90.6945 47.9416C90.6981 47.8948 90.6999 47.8443 90.6999 47.7921V46.9724C90.6999 46.6859 90.6963 46.4031 90.6927 46.131C90.6927 46.1238 90.6927 46.1166 90.6927 46.1094C90.6873 46.0373 90.6764 45.9635 90.6656 45.8824C90.6566 45.8211 90.6494 45.7617 90.644 45.7022C90.644 45.686 90.6404 45.6716 90.6368 45.6572C90.579 45.396 90.5068 45.16 90.4238 44.9546C90.4202 44.9474 90.4184 44.9402 90.413 44.933C90.3444 44.7925 90.2506 44.6177 90.1333 44.4141C90.1297 44.4069 90.1243 44.3979 90.1189 44.3907C90.1027 44.3547 90.0774 44.324 90.0485 44.297C90.0377 44.2826 90.0251 44.2682 90.0142 44.2538C89.9998 44.2304 89.9818 44.2087 89.9637 44.1907C89.9637 44.1907 89.9619 44.1889 89.9601 44.1871C89.9547 44.1781 89.9475 44.1691 89.9403 44.1601C89.9403 44.1601 89.9385 44.1565 89.9367 44.1547C89.9258 44.1385 89.9114 44.1205 89.897 44.1061C89.8807 44.0808 89.8609 44.0592 89.8392 44.0376C89.8176 44.0016 89.7869 43.9727 89.7526 43.9475C89.7454 43.9403 89.7364 43.9313 89.7256 43.9205C89.7147 43.9115 89.7057 43.9007 89.6949 43.8935C89.6732 43.8628 89.6444 43.8394 89.6137 43.8178C89.6047 43.8106 89.5956 43.8034 89.5866 43.798C89.5722 43.7854 89.5578 43.7728 89.5433 43.7638C89.5325 43.7529 89.5217 43.7439 89.509 43.7349L89.4387 43.6845C89.4278 43.6755 89.4116 43.6647 89.3899 43.6485C89.3521 43.607 89.3069 43.5764 89.2528 43.5584C89.251 43.5566 89.2492 43.5548 89.2474 43.553C89.2095 43.5187 89.1644 43.4953 89.1157 43.4791C89.1157 43.4791 89.1121 43.4791 89.1049 43.4719C89.1012 43.4701 89.0994 43.4665 89.0958 43.4647C89.0525 43.4251 88.9984 43.3998 88.9425 43.389C88.9316 43.3854 88.9208 43.38 88.9046 43.3746C88.8883 43.3674 88.8739 43.362 88.8667 43.3566C88.8793 43.362 88.8919 43.3728 88.9064 43.3818H88.9046C88.8649 43.3512 88.818 43.3278 88.7674 43.317C88.7241 43.3044 88.6826 43.2899 88.6429 43.2737C88.5852 43.2503 88.5202 43.2269 88.4517 43.2053C88.4409 43.2017 88.43 43.1981 88.4192 43.1963C88.3127 43.1746 88.1738 43.1476 88.0042 43.1152C87.9573 43.1026 87.9068 43.099 87.8382 43.099H87.7895C87.775 43.0972 87.7624 43.0936 87.7498 43.0936C87.7227 43.0864 87.6957 43.0828 87.6668 43.0828H85.4817C85.4817 43.0828 85.4691 43.0828 85.4619 43.0828C85.2905 43.0936 85.1515 43.1044 85.0469 43.1152H85.0324C85.0126 43.1152 84.9909 43.1152 84.9711 43.1206C84.6806 43.1746 84.437 43.2413 84.2277 43.3206C84.2169 43.3242 84.206 43.3296 84.197 43.335C84.1357 43.3656 84.0797 43.3908 84.0292 43.4125C83.9606 43.4413 83.8957 43.4719 83.8361 43.5025C83.8235 43.5079 83.8109 43.5151 83.8001 43.5241C83.7513 43.5566 83.708 43.5872 83.6629 43.616C83.625 43.6431 83.5853 43.6683 83.5456 43.6935C83.5384 43.6989 83.5312 43.7043 83.5222 43.7115C83.45 43.7674 83.3995 43.807 83.3724 43.8304C83.3634 43.8394 83.3562 43.8448 83.3508 43.8502C83.3381 43.8592 83.3237 43.87 83.3111 43.8827C83.2425 43.9475 83.1794 44.007 83.1198 44.0664C83.0549 44.1331 82.9917 44.2069 82.9358 44.2826C82.9231 44.3006 82.9087 44.3204 82.8943 44.3403L82.8744 44.3691C82.8744 44.3691 82.8636 44.3835 82.86 44.3889C82.8383 44.4105 82.8203 44.4357 82.8041 44.4628C82.7824 44.506 82.7553 44.5474 82.7283 44.5889C82.6868 44.6519 82.6543 44.7132 82.629 44.7744C82.5388 44.942 82.4684 45.1221 82.4197 45.3095C82.3728 45.4951 82.3403 45.677 82.3223 45.8572C82.3169 45.9022 82.3115 45.9491 82.3079 45.9923C82.3042 46.0427 82.3042 46.0896 82.3042 46.131C82.3042 46.4067 82.3024 46.6823 82.2988 46.9579V47.1273C82.2988 47.3489 82.3024 47.5759 82.3115 47.7993C82.3115 47.8029 82.3115 47.8083 82.3115 47.8119C82.3151 47.8821 82.3241 47.9542 82.3331 48.0317C82.3421 48.1109 82.3566 48.1902 82.3746 48.2677C82.4342 48.5577 82.5045 48.7919 82.5929 48.9829C82.6994 49.2171 82.7968 49.3973 82.8889 49.5378C82.8961 49.5486 82.9033 49.5594 82.9123 49.5684C82.9123 49.5684 82.9141 49.572 82.9159 49.5738C82.9213 49.5828 82.9267 49.5936 82.9322 49.6026C82.9502 49.6369 82.9755 49.6711 83.0043 49.6963C83.0043 49.6963 83.0043 49.6963 83.0043 49.6981C83.0188 49.7215 83.0386 49.745 83.0603 49.7648C83.0657 49.772 83.0711 49.7774 83.0765 49.7846C83.0982 49.817 83.1234 49.8477 83.1541 49.8711C83.183 49.9143 83.2209 49.9522 83.2678 49.9792C83.2894 50.008 83.3165 50.035 83.3526 50.0638C83.3634 50.0747 83.3742 50.0837 83.3869 50.0927C83.3923 50.0981 83.3995 50.1035 83.4049 50.1107C83.4229 50.1323 83.4446 50.1503 83.4681 50.1665C83.4771 50.1737 83.4879 50.1863 83.5041 50.199C83.542 50.2314 83.5817 50.2566 83.6214 50.2746C83.6214 50.2746 83.6232 50.2746 83.6232 50.2764C83.6431 50.2981 83.6665 50.3161 83.6918 50.3305L83.8145 50.4061C83.8145 50.4061 83.8235 50.4115 83.8271 50.4133L83.8578 50.4314C83.8776 50.444 83.8975 50.453 83.9101 50.4602C83.9246 50.4692 83.939 50.48 83.957 50.489C83.9624 50.4926 83.9679 50.4944 83.9733 50.498C83.9931 50.5088 84.0148 50.5178 84.0382 50.525C84.0491 50.5305 84.0653 50.5377 84.0869 50.5467C84.096 50.5521 84.1014 50.5539 84.1086 50.5575C84.1483 50.5863 84.1934 50.6079 84.2439 50.6169C84.3648 50.6656 84.4803 50.7016 84.5813 50.7214C84.6734 50.743 84.7997 50.7701 84.9801 50.8025C85.0721 50.8331 85.1569 50.8295 85.1912 50.8259C85.1912 50.8259 85.193 50.8259 85.1948 50.8259C85.2237 50.8349 85.2562 50.8385 85.2868 50.8385H87.5405L87.5423 50.8367ZM84.1122 44.9996C84.4153 44.6663 84.7654 44.506 85.1822 44.506H87.7444C88.1576 44.506 88.5058 44.6681 88.8107 45.0014C89.1247 45.3437 89.2763 45.7455 89.2763 46.2301V47.711C89.2763 48.1956 89.1247 48.5992 88.8107 48.9433C88.504 49.2784 88.1558 49.4423 87.7444 49.4423H85.1822C84.7636 49.4423 84.4153 49.2784 84.1122 48.9433C83.8019 48.5992 83.6503 48.1956 83.6503 47.711V46.2301C83.6503 45.7455 83.8019 45.3437 84.1104 45.0014L84.1122 44.9996Z" fill="#FDFDFD"/>
<path d="M93.9686 43.1151C93.7052 43.1656 93.4742 43.2304 93.2794 43.3043C93.2685 43.3079 93.2577 43.3133 93.2469 43.3187C93.1891 43.3475 93.1332 43.3745 93.0809 43.3962C93.0159 43.4232 92.951 43.4502 92.8842 43.4826C92.8716 43.488 92.8589 43.4952 92.8463 43.5024C92.785 43.5439 92.6947 43.6033 92.5811 43.6862C92.5793 43.6862 92.5757 43.6916 92.572 43.6934L92.3754 43.8429C92.3627 43.8538 92.3501 43.8628 92.3393 43.8754L92.1697 44.0501C92.1083 44.1114 92.0488 44.1816 91.9929 44.2555C91.9676 44.2861 91.9333 44.333 91.8702 44.4267C91.8341 44.4753 91.7998 44.5275 91.7637 44.5852C91.7222 44.65 91.6915 44.7167 91.6699 44.7816C91.5851 44.9437 91.5165 45.1167 91.466 45.2986C91.4155 45.4842 91.3794 45.6715 91.3613 45.8553C91.3613 45.8661 91.3613 45.8769 91.3613 45.8895C91.3613 45.8985 91.3613 45.9111 91.3613 45.922C91.3722 46.0228 91.3758 46.1003 91.3758 46.1544V50.1827C91.3758 50.5772 91.6284 50.8348 92.0362 50.8547C92.2852 50.8673 92.4421 50.7754 92.5306 50.6961C92.6623 50.5754 92.7344 50.4007 92.7453 50.1809V45.9634C92.7489 45.9364 92.7561 45.9003 92.7615 45.8571C92.7759 45.8193 92.7868 45.7778 92.7868 45.7328L92.7904 45.7202C92.7994 45.6896 92.8102 45.6589 92.8229 45.6211C92.8626 45.4932 92.9257 45.3563 93.0141 45.2139C93.0791 45.1293 93.1386 45.0554 93.1927 44.9905C93.2144 44.9725 93.2343 44.9527 93.2541 44.9329C93.2938 44.9131 93.3461 44.8788 93.3894 44.8266C93.5717 44.6951 93.7719 44.6014 93.9867 44.5474C93.9903 44.5474 93.9939 44.5456 93.9975 44.5438C94.0318 44.5347 94.0913 44.5185 94.1779 44.4969C94.205 44.4897 94.223 44.4879 94.2339 44.4861C94.279 44.4951 94.3241 44.4915 94.3692 44.4807C94.4215 44.4861 94.4702 44.4825 94.519 44.4735H99.0515C99.0605 44.4735 99.0695 44.4735 99.0785 44.4735C99.4106 44.4465 99.6397 44.2411 99.692 43.9276C99.7047 43.8934 99.7119 43.8556 99.7119 43.8177V43.7276C99.7119 43.6862 99.7029 43.6466 99.6884 43.6087C99.674 43.5475 99.6469 43.479 99.6072 43.4052C99.6018 43.3944 99.5946 43.3817 99.5874 43.3709C99.5747 43.3457 99.5585 43.3223 99.5387 43.3007C99.5188 43.2773 99.4954 43.2538 99.4701 43.2358C99.443 43.207 99.4106 43.1818 99.3727 43.162L99.3239 43.1367C99.2951 43.1223 99.2644 43.1115 99.2301 43.1061C99.1742 43.0971 99.1345 43.0899 99.1164 43.0863C99.0894 43.0791 99.0623 43.0773 99.0334 43.0773C98.281 43.0773 97.5304 43.0773 96.7816 43.0737C96.031 43.0719 95.2822 43.0701 94.5352 43.0701C94.528 43.0701 94.5208 43.0701 94.5135 43.0701C94.3584 43.0791 94.2339 43.0899 94.1346 43.0989C94.0787 43.0917 94.0227 43.0989 93.9686 43.1187V43.1151Z" fill="#FDFDFD"/>
<path d="M106.166 47.6623C106.193 47.6695 106.222 47.6749 106.249 47.6785C106.275 47.6857 106.302 47.6912 106.329 47.693C106.34 47.693 106.37 47.7002 106.446 47.7182C106.598 47.7812 106.731 47.8461 106.843 47.9109C106.883 47.947 106.921 47.9794 106.958 48.01C106.993 48.0389 107.029 48.0713 107.067 48.1091C107.083 48.1253 107.101 48.1415 107.121 48.1542C107.128 48.1632 107.135 48.1722 107.144 48.1848C107.193 48.2496 107.234 48.2983 107.271 48.3379C107.35 48.4766 107.377 48.5865 107.343 48.6694C107.281 48.8189 107.2 48.9468 107.101 49.0531C107.068 49.082 107.032 49.109 107 49.1324L106.857 49.2279C106.803 49.2639 106.742 49.2946 106.675 49.3198C106.592 49.3504 106.513 49.381 106.433 49.4062L106.414 49.4135C106.392 49.4225 106.368 49.4297 106.338 49.4405C106.302 49.4405 106.266 49.4477 106.231 49.4603C106.224 49.4603 106.213 49.4621 106.204 49.4639C106.166 49.4693 106.141 49.4711 106.127 49.4729C105.786 49.4729 105.369 49.4747 104.88 49.4765C104.385 49.4783 103.889 49.4819 103.393 49.4819H101.037C100.616 49.4909 100.354 49.7467 100.354 50.1485C100.354 50.1611 100.354 50.1719 100.354 50.1827C100.369 50.5971 100.623 50.8529 101.018 50.8529H105.926C105.984 50.8529 106.042 50.8493 106.1 50.8421C106.125 50.8385 106.155 50.8367 106.19 50.8367C106.201 50.8367 106.213 50.8367 106.226 50.8349C106.394 50.8169 106.569 50.7917 106.744 50.7556C106.937 50.716 107.121 50.6493 107.29 50.5556C107.35 50.5304 107.408 50.498 107.474 50.453C107.514 50.4259 107.554 50.4007 107.597 50.3773C107.604 50.3737 107.612 50.3683 107.621 50.3629C107.691 50.3142 107.749 50.2692 107.794 50.2242C107.864 50.1737 107.931 50.1161 107.994 50.0512C108.055 49.99 108.113 49.9269 108.166 49.8674C108.191 49.8422 108.216 49.8116 108.241 49.7774L108.344 49.635C108.402 49.5522 108.461 49.4639 108.525 49.3648C108.53 49.3558 108.535 49.345 108.543 49.336C108.653 49.1108 108.709 48.8748 108.709 48.6316C108.709 48.6046 108.709 48.5793 108.707 48.5505C108.694 48.3001 108.64 48.0533 108.546 47.8173C108.543 47.8083 108.539 47.7992 108.535 47.792C108.503 47.7254 108.447 47.6281 108.364 47.4984C108.36 47.4912 108.355 47.4858 108.351 47.4786C108.283 47.3849 108.247 47.3435 108.225 47.3218C108.207 47.2912 108.187 47.2624 108.16 47.239C108.108 47.1921 108.057 47.1417 108.005 47.084C107.935 47.0084 107.862 46.9453 107.783 46.884C107.76 46.8678 107.734 46.848 107.707 46.8282C107.698 46.821 107.689 46.8156 107.686 46.8102C107.664 46.7868 107.637 46.7669 107.608 46.7507C107.565 46.7273 107.525 46.7021 107.483 46.6751C107.42 46.6318 107.361 46.5994 107.301 46.576C107.128 46.4823 106.946 46.4138 106.753 46.376C106.585 46.3418 106.415 46.313 106.248 46.2895C106.22 46.2841 106.192 46.2841 106.163 46.2877C106.139 46.2913 106.121 46.2913 106.103 46.2877C106.045 46.2805 105.989 46.2769 105.937 46.2769H102.985C102.951 46.2715 102.911 46.2643 102.864 46.2571C102.834 46.2463 102.801 46.2373 102.767 46.2373C102.756 46.2337 102.722 46.2247 102.651 46.2013C102.496 46.1508 102.361 46.086 102.258 46.0103C102.166 45.9418 102.085 45.8752 102.018 45.8103C102 45.7923 101.98 45.7779 101.959 45.7671C101.955 45.7599 101.95 45.7545 101.944 45.7455C101.89 45.677 101.854 45.632 101.825 45.5977C101.764 45.5004 101.731 45.414 101.731 45.3473C101.731 45.3221 101.737 45.2987 101.746 45.2752C101.814 45.1167 101.904 44.978 102.018 44.8537C102.033 44.8357 102.047 44.8231 102.069 44.8122C102.128 44.778 102.188 44.7366 102.244 44.6933C102.296 44.6609 102.35 44.6339 102.404 44.6141C102.482 44.5852 102.559 44.5564 102.641 44.5258C102.677 44.5186 102.713 44.5096 102.751 44.497C102.771 44.4916 102.79 44.4862 102.812 44.4826C102.902 44.4663 102.96 44.4555 103.001 44.4465H108.119C108.528 44.4375 108.792 44.1745 108.792 43.7799C108.792 43.7691 108.792 43.7565 108.792 43.7457C108.779 43.3314 108.526 43.0737 108.137 43.0737H103.171C103.108 43.0737 103.048 43.0773 102.989 43.0845C102.958 43.0899 102.929 43.0899 102.9 43.0899C102.886 43.0899 102.872 43.0899 102.855 43.0935C102.693 43.1152 102.522 43.1422 102.348 43.1764C102.159 43.2107 101.977 43.2755 101.809 43.371C101.74 43.3962 101.675 43.434 101.612 43.4791C101.567 43.5097 101.531 43.5349 101.497 43.5529C101.491 43.5566 101.484 43.562 101.479 43.5656C101.379 43.6322 101.332 43.6682 101.302 43.6971C101.199 43.7763 101.076 43.8952 100.926 44.0592C100.919 44.0664 100.914 44.0754 100.907 44.0844C100.896 44.1006 100.883 44.115 100.867 44.1349C100.845 44.1601 100.806 44.2105 100.751 44.2844C100.748 44.288 100.746 44.2916 100.744 44.2952C100.665 44.4123 100.602 44.5078 100.558 44.5907C100.428 44.8465 100.371 45.1059 100.383 45.3815C100.396 45.6284 100.452 45.8734 100.546 46.1112C100.549 46.1184 100.553 46.1274 100.557 46.1346C100.614 46.2517 100.674 46.3526 100.741 46.4391C100.811 46.5418 100.842 46.5814 100.862 46.6048C100.885 46.6318 100.907 46.6553 100.919 46.6679C101.051 46.8138 101.175 46.9345 101.291 47.0282C101.322 47.0552 101.367 47.0894 101.466 47.1579C101.507 47.1885 101.556 47.2209 101.612 47.257C101.675 47.2984 101.74 47.329 101.802 47.3543C101.966 47.4479 102.148 47.5146 102.341 47.5524C102.516 47.5867 102.693 47.6137 102.866 47.6317C102.877 47.6317 102.89 47.6317 102.9 47.6317C102.913 47.6317 102.933 47.6335 102.964 47.6389C103.034 47.6515 103.106 47.6551 103.18 47.6479H106.11C106.128 47.6515 106.146 47.6551 106.165 47.6587L106.166 47.6623Z" fill="#FDFDFD"/>
<path d="M112.02 43.126C111.98 43.1296 111.944 43.1386 111.913 43.1494C111.778 43.1818 111.639 43.2233 111.496 43.2719C111.458 43.2791 111.422 43.2935 111.39 43.3133C110.767 43.5584 110.278 43.9907 109.937 44.6015C109.883 44.6717 109.833 44.7726 109.777 44.9239C109.739 45.0194 109.717 45.0807 109.703 45.1203C109.674 45.1654 109.656 45.2194 109.652 45.2771C109.649 45.3491 109.632 45.4356 109.604 45.5275C109.558 45.6698 109.528 45.8067 109.517 45.9328C109.499 46.0914 109.49 46.2589 109.49 46.4265V46.83C109.484 46.8552 109.481 46.8823 109.481 46.9093V47.0174C109.481 47.0444 109.484 47.0696 109.49 47.0948V47.4227C109.484 48.0389 109.481 48.4911 109.477 48.7775C109.475 49.1234 109.474 49.3594 109.474 49.4873C109.474 49.6314 109.474 49.7161 109.477 49.7666C109.481 49.8098 109.483 49.9359 109.49 50.1359C109.49 50.3647 109.557 50.5484 109.69 50.6782C109.779 50.7646 109.939 50.8655 110.203 50.8601C110.632 50.8511 110.899 50.5665 110.899 50.1197V47.6641H115.547C115.547 47.6641 115.56 47.6641 115.567 47.6641C115.755 47.6533 115.903 47.6425 116.004 47.6299C116.009 47.6299 116.013 47.6299 116.016 47.6281C116.108 47.6137 116.193 47.5993 116.271 47.5795C116.429 47.5632 116.599 47.5092 116.792 47.4155C116.973 47.3308 117.115 47.2408 117.225 47.1471C117.249 47.1291 117.27 47.1092 117.288 47.0858C117.471 46.9183 117.624 46.7057 117.739 46.4571C117.741 46.4535 117.743 46.4499 117.745 46.4463C117.803 46.3094 117.855 46.1238 117.904 45.8824C117.905 45.8734 117.907 45.8644 117.907 45.8554C117.943 45.5455 117.938 45.241 117.889 44.9492C117.839 44.6573 117.727 44.3745 117.555 44.1078C117.508 44.0069 117.42 43.9007 117.272 43.7655C117.178 43.6809 117.119 43.6286 117.075 43.5962C117.05 43.5692 117.018 43.5439 116.983 43.5259C116.942 43.4827 116.888 43.4503 116.828 43.434C116.783 43.4016 116.743 43.3764 116.713 43.3566C116.695 43.344 116.677 43.3368 116.657 43.3296C116.473 43.2575 116.303 43.2016 116.152 43.1602C116.106 43.1386 116.06 43.1242 116.007 43.1224C115.996 43.1224 115.944 43.1152 115.789 43.0863C115.778 43.0863 115.764 43.0827 115.753 43.0827C115.681 43.0773 115.607 43.0719 115.531 43.0665C115.524 43.0665 115.515 43.0665 115.507 43.0665H112.577C112.373 43.0773 112.186 43.0972 112.018 43.126H112.02ZM112.615 44.4718H115.482C115.578 44.488 115.672 44.5024 115.76 44.515C115.818 44.524 115.881 44.5366 115.944 44.5546C115.973 44.5708 116.005 44.5834 116.038 44.5907C116.049 44.5961 116.07 44.6051 116.103 44.6249C116.141 44.6447 116.162 44.6573 116.171 44.6645C116.191 44.6843 116.215 44.7006 116.24 44.715C116.265 44.7492 116.3 44.778 116.339 44.7978C116.424 44.8897 116.485 45.023 116.521 45.1978C116.525 45.2212 116.53 45.2446 116.538 45.2662C116.543 45.3383 116.545 45.4356 116.545 45.5563C116.545 45.5617 116.545 45.5671 116.545 45.5725V45.5869C116.545 45.6266 116.538 45.6968 116.505 45.8085C116.491 45.8337 116.478 45.8626 116.471 45.8914C116.467 45.9022 116.453 45.931 116.419 45.9887C116.41 46.0049 116.401 46.0157 116.397 46.0247C116.379 46.0373 116.363 46.0499 116.348 46.0643C116.327 46.0806 116.301 46.0968 116.276 46.1184C116.245 46.1292 116.215 46.1418 116.188 46.1598C116.182 46.1598 116.175 46.1634 116.168 46.1652C116.146 46.1724 116.128 46.1778 116.114 46.1814C116.069 46.1868 116.027 46.2013 115.987 46.2211C115.978 46.2229 115.964 46.2265 115.944 46.2301C115.85 46.2445 115.821 46.2463 115.821 46.2463C115.811 46.2463 115.802 46.2463 115.791 46.2463C115.655 46.2589 115.581 46.2625 115.543 46.2625H110.883C110.904 45.9833 110.969 45.7112 111.072 45.4554C111.085 45.4284 111.098 45.3996 111.107 45.3725C111.112 45.3599 111.117 45.3455 111.126 45.3329C111.22 45.1744 111.334 45.0266 111.464 44.8951C111.473 44.8861 111.491 44.8681 111.518 44.8447C111.523 44.8393 111.529 44.8321 111.536 44.8285C111.563 44.8122 111.588 44.7942 111.61 44.7726C111.621 44.7654 111.633 44.7564 111.65 44.7474C111.664 44.7384 111.677 44.7312 111.686 44.7258C111.738 44.7114 111.785 44.6843 111.823 44.6483C111.832 44.6447 111.845 44.6393 111.863 44.6321C111.924 44.6069 111.953 44.5961 111.965 44.5925C111.993 44.5871 112.02 44.578 112.045 44.5672C112.057 44.5636 112.07 44.56 112.085 44.5564C112.104 44.551 112.124 44.5438 112.146 44.5366C112.177 44.533 112.216 44.5258 112.276 44.515C112.325 44.506 112.37 44.4988 112.413 44.4862C112.474 44.4808 112.5 44.4808 112.51 44.4808C112.546 44.4862 112.584 44.4844 112.62 44.4754L112.615 44.4718Z" fill="#FDFDFD"/>
<path d="M123.881 50.8367C124.027 50.8313 124.155 50.8241 124.267 50.8097C124.282 50.8115 124.296 50.8115 124.312 50.8115C124.352 50.8115 124.392 50.8043 124.428 50.7898C124.679 50.7466 124.915 50.6817 125.13 50.5989C125.135 50.5953 125.142 50.5935 125.148 50.5917C125.206 50.5647 125.262 50.5394 125.319 50.5142C125.382 50.4872 125.447 50.4548 125.518 50.4187C125.529 50.4133 125.538 50.4079 125.548 50.4025C125.59 50.3755 125.63 50.3503 125.669 50.3268C125.714 50.298 125.763 50.2674 125.817 50.2314C125.823 50.2278 125.828 50.2242 125.832 50.2206C125.917 50.1575 125.963 50.1161 125.994 50.0872C126.001 50.0782 126.01 50.071 126.021 50.0638C126.03 50.0566 126.039 50.0494 126.046 50.0422C126.193 49.9053 126.31 49.7774 126.404 49.6531C126.427 49.626 126.451 49.5972 126.474 49.563C126.49 49.5396 126.507 49.5161 126.521 49.4963C126.528 49.4891 126.532 49.4819 126.537 49.4729C126.559 49.4369 126.586 49.3954 126.618 49.3504C126.665 49.2837 126.703 49.2153 126.728 49.1432C126.811 48.9811 126.878 48.8045 126.925 48.6171C126.972 48.4298 127.008 48.2478 127.032 48.0731C127.035 48.0334 127.033 47.9902 127.037 47.9452C127.041 47.8983 127.042 47.8479 127.042 47.7956V46.9759C127.042 46.7183 127.039 46.4427 127.033 46.1346C127.033 46.1274 127.033 46.1202 127.033 46.113C127.028 46.0409 127.017 45.967 127.006 45.8842C126.997 45.8283 126.992 45.7707 126.985 45.7058C126.985 45.6914 126.981 45.6752 126.979 45.6608C126.922 45.3995 126.849 45.1635 126.766 44.9582C126.763 44.951 126.761 44.9438 126.757 44.9365C126.689 44.7978 126.595 44.6249 126.478 44.4195C126.472 44.4105 126.469 44.4033 126.463 44.3961C126.445 44.36 126.422 44.3294 126.393 44.3024C126.382 44.288 126.371 44.2754 126.359 44.261C126.344 44.2375 126.326 44.2141 126.306 44.1943C126.306 44.1943 126.304 44.1925 126.303 44.1907C126.297 44.1817 126.292 44.1727 126.285 44.1655C126.285 44.1655 126.283 44.1619 126.281 44.1601C126.268 44.1421 126.256 44.1258 126.24 44.1096C126.223 44.0844 126.203 44.0628 126.182 44.0412C126.169 44.0231 126.155 44.0051 126.138 43.9889C126.126 43.9745 126.111 43.9637 126.093 43.9511C126.086 43.9439 126.079 43.9349 126.068 43.9241C126.057 43.9151 126.048 43.9042 126.037 43.897C126.028 43.8844 126.018 43.8736 126.009 43.8628C125.992 43.8466 125.974 43.8322 125.954 43.8196C125.945 43.8142 125.938 43.807 125.929 43.8016C125.915 43.7871 125.898 43.7763 125.884 43.7655C125.873 43.7547 125.862 43.7457 125.852 43.7367L125.779 43.6863C125.769 43.6772 125.752 43.6646 125.731 43.6502C125.727 43.6466 125.725 43.643 125.72 43.6394C125.684 43.6034 125.64 43.5764 125.592 43.5601C125.59 43.5583 125.588 43.5565 125.585 43.5547C125.547 43.5205 125.505 43.4971 125.455 43.4827C125.455 43.4827 125.451 43.4809 125.442 43.4755C125.438 43.4737 125.437 43.4719 125.433 43.4701C125.39 43.4322 125.337 43.4052 125.28 43.3944C125.269 43.3908 125.256 43.3854 125.242 43.38C125.225 43.3728 125.213 43.3674 125.204 43.362C125.173 43.344 125.141 43.3295 125.105 43.3205C125.061 43.3079 125.018 43.2935 124.98 43.2791C124.921 43.2539 124.857 43.2323 124.789 43.2106C124.778 43.207 124.765 43.2034 124.755 43.2016C124.648 43.18 124.509 43.153 124.34 43.1206C124.294 43.1098 124.242 43.1043 124.174 43.1043H124.125C124.112 43.1025 124.098 43.0989 124.083 43.0989C124.058 43.0917 124.029 43.0881 124 43.0881H121.815C121.815 43.0881 121.803 43.0881 121.795 43.0881C121.624 43.0989 121.485 43.1098 121.382 43.1206H121.366C121.346 43.1206 121.324 43.1206 121.305 43.126C121.018 43.18 120.767 43.2467 120.561 43.3259C120.55 43.3295 120.54 43.3349 120.529 43.3404C120.471 43.371 120.413 43.3962 120.363 43.4178C120.298 43.4448 120.235 43.4737 120.17 43.5061C120.157 43.5133 120.143 43.5205 120.13 43.5295C120.083 43.5619 120.038 43.5908 119.993 43.6214C119.962 43.643 119.928 43.6646 119.894 43.6863L119.874 43.6989C119.874 43.6989 119.859 43.7097 119.852 43.7133C119.78 43.7691 119.729 43.8088 119.701 43.834C119.692 43.8412 119.686 43.8484 119.679 43.852C119.664 43.861 119.65 43.8736 119.637 43.8844C119.569 43.9493 119.506 44.0105 119.448 44.0682C119.381 44.1366 119.318 44.2105 119.262 44.2862C119.249 44.3024 119.239 44.3186 119.226 44.3384L119.203 44.3709C119.195 44.3799 119.192 44.3871 119.188 44.3925C119.166 44.4141 119.147 44.4393 119.132 44.4645C119.109 44.5078 119.083 44.551 119.056 44.5906C119.015 44.6519 118.981 44.715 118.955 44.778C118.865 44.9456 118.797 45.1257 118.75 45.3113C118.703 45.4932 118.67 45.677 118.65 45.8589C118.645 45.904 118.64 45.9526 118.638 45.9977C118.634 46.0463 118.632 46.0914 118.632 46.1328C118.632 46.4084 118.631 46.6841 118.627 46.9615C118.627 47.0174 118.627 47.0732 118.627 47.1291C118.627 47.3506 118.632 47.5776 118.641 47.801C118.641 47.8064 118.641 47.81 118.641 47.8155C118.647 47.8839 118.654 47.956 118.663 48.0316C118.672 48.1109 118.686 48.1902 118.705 48.2677C118.764 48.5523 118.836 48.7919 118.923 48.9829C119.029 49.2189 119.127 49.4008 119.219 49.5378C119.226 49.5486 119.233 49.5594 119.24 49.5684C119.24 49.5684 119.242 49.5702 119.244 49.572C119.249 49.5846 119.257 49.5972 119.264 49.608C119.282 49.6404 119.305 49.6711 119.332 49.6981C119.349 49.7251 119.37 49.7485 119.394 49.772C119.397 49.7774 119.401 49.781 119.406 49.7882C119.428 49.8206 119.453 49.853 119.484 49.8765C119.513 49.9197 119.553 49.9575 119.598 49.9827C119.625 50.017 119.654 50.0458 119.682 50.0674C119.693 50.0782 119.704 50.0872 119.717 50.0962C119.724 50.1016 119.729 50.1089 119.737 50.1143C119.755 50.1341 119.776 50.1539 119.8 50.1701C119.809 50.1791 119.821 50.1899 119.838 50.2025C119.876 50.235 119.915 50.2602 119.955 50.2782C119.955 50.2782 119.955 50.2782 119.957 50.2782C119.977 50.2998 119.998 50.3178 120.025 50.3322L120.148 50.4079C120.148 50.4079 120.157 50.4133 120.161 50.4151L120.197 50.4367C120.215 50.4457 120.231 50.4548 120.242 50.462C120.256 50.471 120.271 50.48 120.285 50.489C120.291 50.4926 120.298 50.4944 120.305 50.4998C120.327 50.5124 120.348 50.5214 120.372 50.5286C120.383 50.534 120.399 50.5412 120.42 50.5502C120.43 50.5538 120.435 50.5574 120.442 50.5592C120.482 50.5881 120.527 50.6097 120.577 50.6187C120.698 50.6673 120.814 50.7034 120.915 50.7232C121.005 50.7448 121.133 50.7718 121.314 50.8043C121.406 50.8349 121.49 50.8313 121.525 50.8277C121.527 50.8277 121.528 50.8277 121.53 50.8277C121.559 50.8367 121.592 50.8403 121.624 50.8403H123.876L123.881 50.8367ZM120.453 44.9996C120.754 44.6663 121.104 44.506 121.523 44.506H124.083C124.497 44.506 124.845 44.6681 125.151 45.0014C125.464 45.3437 125.615 45.7436 125.615 46.2301V47.711C125.615 48.1956 125.464 48.5991 125.151 48.9432C124.845 49.2783 124.498 49.4423 124.085 49.4423H121.525C121.106 49.4423 120.756 49.2783 120.455 48.9432C120.144 48.5991 119.993 48.1956 119.993 47.711V46.2301C119.993 45.7436 120.144 45.3437 120.455 45.0014L120.453 44.9996Z" fill="#FDFDFD"/>
<path d="M130.475 43.0953C130.419 43.0881 130.363 43.0953 130.31 43.1151C130.049 43.1656 129.816 43.2304 129.619 43.3043C129.609 43.3079 129.598 43.3133 129.587 43.3187C129.529 43.3475 129.473 43.3746 129.424 43.3944C129.36 43.4214 129.293 43.4502 129.228 43.4809C129.215 43.4881 129.203 43.4935 129.192 43.5007C129.134 43.5367 129.053 43.5926 128.925 43.6844C128.921 43.6844 128.917 43.6898 128.914 43.6916L128.717 43.8412C128.705 43.852 128.692 43.861 128.681 43.8736L128.51 44.0483C128.448 44.1114 128.389 44.1799 128.335 44.2519C128.304 44.2862 128.27 44.3348 128.212 44.4249C128.176 44.4735 128.14 44.5276 128.105 44.5834C128.064 44.6483 128.033 44.7149 128.012 44.7798C127.927 44.9437 127.858 45.1167 127.81 45.2968C127.757 45.4824 127.723 45.6698 127.705 45.8571C127.703 45.8679 127.703 45.8787 127.703 45.8896C127.703 45.8986 127.703 45.9094 127.705 45.9202C127.714 46.0211 127.719 46.1003 127.719 46.1544V50.1827C127.719 50.5772 127.972 50.8349 128.38 50.8547C128.631 50.8673 128.786 50.7754 128.874 50.6961C129.008 50.5754 129.08 50.4025 129.089 50.1809C129.089 50.1755 129.089 50.1701 129.089 50.1665V45.9616C129.092 45.9364 129.098 45.9004 129.105 45.8571C129.121 45.8193 129.13 45.7779 129.13 45.7346L129.134 45.722C129.143 45.6896 129.154 45.659 129.166 45.6211C129.206 45.4932 129.269 45.3563 129.36 45.214C129.424 45.1275 129.484 45.0554 129.538 44.9906C129.558 44.9744 129.58 44.9545 129.598 44.9329C129.636 44.9131 129.688 44.8807 129.729 44.8284C129.912 44.6969 130.114 44.6014 130.337 44.5438C130.374 44.5348 130.433 44.5186 130.52 44.4969C130.547 44.4897 130.565 44.4879 130.576 44.4861C130.621 44.4951 130.668 44.4915 130.711 44.4807C130.763 44.4861 130.812 44.4825 130.863 44.4735H135.393C135.404 44.4735 135.411 44.4735 135.42 44.4735C135.754 44.4465 135.983 44.2393 136.034 43.9258C136.046 43.8916 136.054 43.8556 136.054 43.8177V43.7277C136.054 43.6862 136.045 43.6466 136.03 43.6106C136.016 43.5475 135.989 43.4809 135.949 43.4052C135.942 43.3926 135.936 43.3818 135.927 43.371C135.915 43.3457 135.897 43.3223 135.879 43.3007C135.859 43.2773 135.837 43.2557 135.812 43.2394C135.785 43.2088 135.751 43.1836 135.713 43.1656L135.664 43.1404C135.635 43.1259 135.604 43.1151 135.572 43.1097C135.516 43.1007 135.478 43.0935 135.458 43.0899C135.431 43.0827 135.404 43.0791 135.375 43.0791C134.623 43.0791 133.87 43.0791 133.123 43.0755C132.373 43.0737 131.624 43.0719 130.875 43.0719C130.868 43.0719 130.861 43.0719 130.854 43.0719C130.7 43.0809 130.576 43.0917 130.476 43.1007L130.475 43.0953Z" fill="#FDFDFD"/>
<path d="M145.099 46.9687C145.099 46.9543 145.099 46.9399 145.099 46.9237C145.079 46.5057 144.822 46.2445 144.431 46.2445H138.08V43.7655C138.074 43.5511 138.007 43.3818 137.879 43.2611C137.795 43.1818 137.639 43.0863 137.385 43.0953C136.979 43.1115 136.726 43.362 136.726 43.7475V47.8082C136.726 47.8389 136.723 47.9037 136.712 48.0442C136.712 48.0532 136.712 48.064 136.712 48.0731C136.712 48.0839 136.712 48.0947 136.712 48.1055C136.73 48.2838 136.764 48.4658 136.811 48.646C136.858 48.8297 136.928 49.0045 137.017 49.1666C137.051 49.2585 137.114 49.363 137.204 49.4927C137.25 49.5666 137.291 49.6278 137.34 49.6765C137.385 49.7413 137.437 49.8062 137.493 49.8656C137.555 49.9305 137.618 49.9935 137.683 50.053C137.692 50.062 137.708 50.0728 137.717 50.0818C137.737 50.0962 137.793 50.1413 137.894 50.2223C137.944 50.262 137.993 50.2962 138.038 50.3268C138.08 50.3538 138.13 50.3827 138.175 50.4097C138.246 50.4511 138.32 50.489 138.392 50.5196L138.588 50.6025C138.791 50.6799 139.014 50.7412 139.254 50.7826C139.292 50.7988 139.334 50.8078 139.379 50.8078H139.399C139.46 50.8132 139.523 50.8186 139.586 50.8241C139.664 50.8295 139.74 50.8331 139.823 50.8331H142.019C142.769 50.8331 143.511 50.8295 144.223 50.8241C144.296 50.8241 144.368 50.8132 144.444 50.7898C144.487 50.779 144.528 50.761 144.566 50.734C144.584 50.725 144.601 50.7142 144.617 50.7015C144.64 50.6853 144.66 50.6673 144.68 50.6457C144.684 50.6421 144.687 50.6385 144.693 50.6349C144.714 50.6151 144.734 50.5953 144.75 50.57L144.754 50.5646C144.77 50.5466 144.783 50.5268 144.794 50.507C144.837 50.4241 144.869 50.3358 144.886 50.2403C144.889 50.2205 144.891 50.2007 144.891 50.1827V50.0908C144.891 50.0908 144.891 50.0782 144.891 50.0728C144.871 49.7179 144.64 49.4837 144.276 49.4441C144.265 49.4441 144.252 49.4423 144.241 49.4423H139.79C139.756 49.4386 139.72 49.4386 139.684 49.4423C139.628 49.4242 139.568 49.4224 139.509 49.435C139.501 49.435 139.491 49.4314 139.476 49.4278C139.393 49.408 139.332 49.3918 139.287 49.381C139.068 49.3215 138.875 49.2297 138.702 49.1C138.659 49.0477 138.605 49.0135 138.567 48.9937C138.551 48.9756 138.534 48.9576 138.518 48.9396C138.514 48.936 138.509 48.9324 138.507 48.9288C138.478 48.9036 138.451 48.8748 138.426 48.8441C138.401 48.8117 138.372 48.7721 138.343 48.7288C138.262 48.6045 138.199 48.4676 138.152 48.3181L138.119 48.219C138.119 48.1757 138.11 48.1343 138.096 48.0965C138.089 48.0496 138.083 48.0136 138.078 47.9866V47.6281H144.413C144.83 47.6281 145.099 47.3668 145.099 46.9633V46.9687Z" fill="#FDFDFD"/>
</svg>
